<svg xmlns="http://www.w3.org/2000/svg" xmlns:xlink="http://www.w3.org/1999/xlink" width="48" height="48" viewBox="0 0 48 48"><defs><linearGradient id="b" x1="992.183" x2="1019.298" y1="516.081" y2="545.959" gradientTransform="matrix(1.53785 0 0 1.53785 -1522.705 211.343)" gradientUnits="userSpaceOnUse" xlink:href="#a"/><linearGradient id="a"><stop offset="0" stop-color="#ff1679"/><stop offset="1" stop-color="#ff770b"/></linearGradient></defs><g transform="translate(0 -1004.362)"><rect width="48" height="48" y="1004.362" fill="url(#b)" rx="10.144" ry="10.144"/><path fill="#fff" style="line-height:normal;text-indent:0;text-align:start;text-decoration-line:none;text-decoration-style:solid;text-decoration-color:#000;text-transform:none;block-progression:tb;isolation:auto;mix-blend-mode:normal" d="M 24.492188,1014.3622 A 0.50004997,0.50004997 0 0 0 24,1014.87 l 0,1 a 0.50004997,0.50004997 0 1 0 1,0 l 0,-1 a 0.50004997,0.50004997 0 0 0 -0.507812,-0.5078 z m -2.708985,1.2969 a 0.50004997,0.50004997 0 0 0 -0.349609,0.8594 l 0.707031,0.707 a 0.50064305,0.50064305 0 1 0 0.707031,-0.709 l -0.707031,-0.7051 a 0.50004997,0.50004997 0 0 0 -0.357422,-0.1523 z m 5.419922,0 a 0.50004997,0.50004997 0 0 0 -0.34375,0.1523 l -0.707031,0.7051 a 0.50064305,0.50064305 0 1 0 0.707031,0.709 l 0.707031,-0.707 a 0.50004997,0.50004997 0 0 0 -0.363281,-0.8594 z M 24.5,1017.3759 c -0.822171,0 -1.5,0.6778 -1.5,1.5 l 0,0.498 -13.5,0 a 0.50004997,0.50004997 0 0 0 -0.5,0.5 l 0,13.9922 0,3 a 0.50004997,0.50004997 0 0 0 0.5,0.5 l 2.683594,0 c -0.11196,0.3136 -0.183589,0.6471 -0.183594,0.9981 -4.3e-5,1.6503 1.349186,2.998 3,2.998 1.650814,0 3.000043,-1.3477 3,-2.998 -5e-6,-0.351 -0.07163,-0.6845 -0.183594,-0.9981 l 13.367188,0 c -0.11196,0.3136 -0.183589,0.6471 -0.183594,0.9981 -4.3e-5,1.6503 1.349186,2.998 3,2.998 1.650814,0 3.000043,-1.3477 3,-2.998 -5e-6,-0.351 -0.07163,-0.6845 -0.183594,-0.9981 l 3.683594,0 a 0.50004997,0.50004997 0 0 0 0.5,-0.5 l 0,-3 0,-2.498 c 0,-1.6527 -1.346793,-2.9981 -3,-2.9981 l -1,0 0,-1 0,-1.9726 c 0,-2.2065 -1.792803,-3.9981 -4,-3.9981 l -4,0 0,-1.5254 a 0.50004997,0.50004997 0 0 0 -0.5,-0.5 l -2.5,0 0,-0.498 c 0,-0.8222 -0.677829,-1.5 -1.5,-1.5 z m 0,1 c 0.285829,0 0.5,0.2148 0.5,0.5 l 0,0.498 -1,0 0,-0.498 c 0,-0.2852 0.214171,-0.5 0.5,-0.5 z m -14.5,1.998 18,0 0,12.9922 -18,0 0,-0.998 1.507813,0 a 0.50004997,0.50004997 0 1 0 0,-1 l -1.507813,0 0,-10.9942 z m 19,2.0254 4,0 c 1.670803,0 3,1.3286 3,2.9981 l 0,1.9726 0,2 2,0 c 1.116793,0 2,0.8824 2,1.9981 l -1.507812,0 a 0.50004997,0.50004997 0 1 0 0,1 l 1.507812,0 0,0.998 -11,0 0,-10.9668 z m -10.5,0.9727 a 0.50004997,0.50004997 0 0 0 -0.5,0.5 l 0,1.5 -1.5,0 a 0.50004997,0.50004997 0 0 0 -0.5,0.5 l 0,1.998 a 0.50004997,0.50004997 0 0 0 0.5,0.5 l 1.5,0 0,1.5 a 0.50004997,0.50004997 0 0 0 0.5,0.5 l 2,0 a 0.50004997,0.50004997 0 0 0 0.5,-0.5 l 0,-1.5 1.5,0 a 0.50004997,0.50004997 0 0 0 0.5,-0.5 l 0,-1.998 a 0.50004997,0.50004997 0 0 0 -0.5,-0.5 l -1.5,0 0,-1.5 a 0.50004997,0.50004997 0 0 0 -0.5,-0.5 l -2,0 z m 11.5,0 0,4.9668 4.994141,0 0.0059,-0.4941 0.0059,-0.543 0,-1.4395 c 0,-0.7153 -0.242286,-1.3565 -0.695312,-1.8047 -0.453109,-0.4481 -1.096518,-0.6855 -1.810629,-0.6855 l -1.494141,0 -1.005859,0 z m -11,1 1,0 0,1.5 a 0.50004997,0.50004997 0 0 0 0.5,0.5 l 1.5,0 0,0.998 -1.5,0 a 0.50004997,0.50004997 0 0 0 -0.5,0.5 l 0,1.5 -1,0 0,-1.5 a 0.50004997,0.50004997 0 0 0 -0.5,-0.5 l -1.5,0 0,-0.998 1.5,0 a 0.50004997,0.50004997 0 0 0 0.5,-0.5 l 0,-1.5 z m 12,0 0.0059,0 1.494141,0 c 0.501154,0 0.861322,0.153 1.107422,0.3965 0.2461,0.2434 0.398437,0.5956 0.398437,1.0937 l 0,1.4336 0,0.043 -3.005859,0 0,-2.9668 z m -0.550781,4.998 a 0.50064426,0.50064426 0 1 0 0.05078,1 l 1,0 a 0.50004997,0.50004997 0 1 0 0,-1 l -1,0 a 0.50004997,0.50004997 0 0 0 -0.05078,0 z M 10,1034.3661 l 18.5,0 11.5,0 0,1.5157 0,0.4843 -3.78125,0 c -0.549997,-0.6094 -1.337309,-1 -2.21875,-1 -0.881441,0 -1.668753,0.3906 -2.21875,1 l -14.5625,0 c -0.549997,-0.6094 -1.337309,-1 -2.21875,-1 -0.881441,0 -1.668753,0.3906 -2.21875,1 l -2.78125,0 0,-2 z m 5,2 c 1.110628,0 1.999985,0.8885 2,1.9981 2.9e-5,1.1096 -0.88934,1.998 -2,1.998 -1.11066,0 -2.000029,-0.8884 -2,-1.998 1.6e-5,-1.1096 0.889372,-1.9981 2,-1.9981 z m 19,0 c 1.110628,0 1.999985,0.8885 2,1.9981 2.9e-5,1.1096 -0.88934,1.998 -2,1.998 -1.11066,0 -2.000029,-0.8884 -2,-1.998 1.5e-5,-1.1096 0.889372,-1.9981 2,-1.9981 z m -19.035156,1.4981 a 0.5,0.49972695 0 0 0 -0.464844,0.5 0.5,0.49972695 0 0 0 0.5,0.5 0.5,0.49972695 0 0 0 0.5,-0.5 0.5,0.49972695 0 0 0 -0.5,-0.5 0.5,0.49972695 0 0 0 -0.03516,0 z m 19,0 a 0.5,0.49972695 0 0 0 -0.464844,0.5 0.5,0.49972695 0 0 0 0.5,0.5 0.5,0.49972695 0 0 0 0.5,-0.5 0.5,0.49972695 0 0 0 -0.5,-0.5 0.5,0.49972695 0 0 0 -0.03516,0 z" color="#000" font-family="sans-serif" font-weight="400" overflow="visible" white-space="normal"/></g></svg>