<svg xmlns="http://www.w3.org/2000/svg" xmlns:xlink="http://www.w3.org/1999/xlink" width="48" height="48" viewBox="0 0 48 48"><defs><linearGradient id="b" x1="1073.403" x2="1097.116" y1="516.451" y2="544.308" gradientTransform="matrix(1.53785 0 0 1.53785 -1643.872 211.343)" gradientUnits="userSpaceOnUse" xlink:href="#a"/><linearGradient id="a"><stop offset="0" stop-color="#16ff6a"/><stop offset="1" stop-color="#0090a5"/></linearGradient></defs><g transform="translate(0 -1004.362)"><rect width="48" height="48" y="1004.362" fill="url(#b)" rx="10.144" ry="10.144"/><path fill="#fff" style="line-height:normal;text-indent:0;text-align:start;text-decoration-line:none;text-decoration-style:solid;text-decoration-color:#000;text-transform:none;block-progression:tb;isolation:auto;mix-blend-mode:normal" d="m 22,1017.3622 c -1.099351,0 -2,0.9007 -2,2 l 0,1 -6.0625,0 c -1.076394,0 -1.9375,0.9119 -1.9375,2 l 0,14 c 0,1.0882 0.861106,2 1.9375,2 l 20.125,0 c 1.076394,0 1.9375,-0.9118 1.9375,-2 l 0,-14 c 0,-1.0881 -0.861106,-2 -1.9375,-2 l -6.0625,0 0,-1 c 0,-1.0993 -0.900649,-2 -2,-2 l -4,0 z m 0,1 4,0 c 0.562649,0 1,0.4374 1,1 l 0,1 -6,0 0,-1 c 0,-0.5626 0.437351,-1 1,-1 z m -8.0625,3 6.486328,0 a 0.50005,0.50005 0 0 0 0.146484,0 l 6.853516,0 a 0.50005,0.50005 0 0 0 0.146484,0 l 6.492188,0 c 0.516356,0 0.9375,0.4262 0.9375,1 l 0,14 c 0,0.5739 -0.421144,1 -0.9375,1 l -20.125,0 c -0.516356,0 -0.9375,-0.4261 -0.9375,-1 l 0,-14 c 0,-0.5738 0.421144,-1 0.9375,-1 z m 1.517578,2 a 0.50064427,0.50064427 0 0 0 0.05078,1 l 16.988282,0 a 0.50004994,0.50004994 0 1 0 0,-1 l -16.988282,0 a 0.50004994,0.50004994 0 0 0 -0.05078,0 z m 7.544922,2.5 a 0.50005,0.50005 0 0 0 -0.5,0.5 l 0,1.5 -1.5,0 a 0.50005,0.50005 0 0 0 -0.5,0.5 l 0,2 a 0.50005,0.50005 0 0 0 0.5,0.5 l 1.5,0 0,1.5 a 0.50005,0.50005 0 0 0 0.5,0.5 l 2,0 a 0.50005,0.50005 0 0 0 0.5,-0.5 l 0,-1.5 1.5,0 a 0.50005,0.50005 0 0 0 0.5,-0.5 l 0,-2 a 0.50005,0.50005 0 0 0 -0.5,-0.5 l -1.5,0 0,-1.5 a 0.50005,0.50005 0 0 0 -0.5,-0.5 l -2,0 z m 0.5,1 1,0 0,1.5 a 0.50005,0.50005 0 0 0 0.5,0.5 l 1.5,0 0,1 -1.5,0 a 0.50005,0.50005 0 0 0 -0.5,0.5 l 0,1.5 -1,0 0,-1.5 a 0.50005,0.50005 0 0 0 -0.5,-0.5 l -1.5,0 0,-1 1.5,0 a 0.50005,0.50005 0 0 0 0.5,-0.5 l 0,-1.5 z m -8.044922,7.5 a 0.50064427,0.50064427 0 0 0 0.05078,1 l 16.988282,0 a 0.50004994,0.50004994 0 1 0 0,-1 l -16.988282,0 a 0.50004994,0.50004994 0 0 0 -0.05078,0 z" color="#000" font-family="sans-serif" font-weight="400" overflow="visible" white-space="normal"/></g></svg>