<svg xmlns="http://www.w3.org/2000/svg" xmlns:xlink="http://www.w3.org/1999/xlink" width="48" height="48" viewBox="0 0 48 48"><defs><linearGradient id="b" x1="992.183" x2="1019.298" y1="516.081" y2="545.959" gradientTransform="matrix(1.53785 0 0 1.53785 -1522.705 211.343)" gradientUnits="userSpaceOnUse" xlink:href="#a"/><linearGradient id="a"><stop offset="0" stop-color="#ff1679"/><stop offset="1" stop-color="#ff770b"/></linearGradient></defs><g transform="translate(0 -1004.362)"><rect width="48" height="48" y="1004.362" fill="url(#b)" rx="10.144" ry="10.144"/><path fill="#fff" style="line-height:normal;text-indent:0;text-align:start;text-decoration-line:none;text-decoration-style:solid;text-decoration-color:#000;text-transform:none;block-progression:tb;isolation:auto;mix-blend-mode:normal" d="m 30.431643,1016.3621 c -0.509121,-0.01 -1.01668,0.1749 -1.400391,0.5586 l -5.03125,5.0313 -5.03125,-5.0293 c -0.383739,-0.3835 -0.891798,-0.5676 -1.400391,-0.5586 -0.508592,0.01 -1.018727,0.2101 -1.40625,0.5976 l -3.564453,3.5645 c -0.775031,0.775 -0.806502,2.0373 -0.03906,2.8047 l 5.03125,5.0312 -5.03125,5.0313 c -0.76743,0.7674 -0.734016,2.0316 0.04102,2.8066 l 3.5625,3.5645 c 0.775038,0.775 2.039217,0.8061 2.80664,0.039 l 5.03125,-5.0312 5.03125,5.0293 c 0.767481,0.767 2.031617,0.734 2.806641,-0.041 l 3.564453,-3.5645 c 0.775031,-0.775 0.806453,-2.0372 0.03906,-2.8047 l -5.031248,-5.0293 5.03125,-5.0312 c 0.767423,-0.7674 0.735975,-2.0317 -0.03906,-2.8067 l -3.564453,-3.5625 c -0.387518,-0.3875 -0.897132,-0.5905 -1.406252,-0.5996 z m -12.853516,0.9922 c 0.250294,-0.01 0.496977,0.089 0.683594,0.2754 l 5.03125,5.0293 -4.996094,4.9961 -5.03125,-5.0313 c -0.373271,-0.3732 -0.370525,-0.981 0.03906,-1.3906 l 3.564453,-3.5644 c 0.204787,-0.2048 0.458691,-0.3093 0.708985,-0.3145 z m 12.84375,0 c 0.250511,0.01 0.504192,0.1078 0.708984,0.3125 l 0,0 3.564453,3.5625 c 0.409584,0.4096 0.410435,1.0192 0.03711,1.3925 l -5.328125,5.3282 a 0.50004994,0.50004994 0 0 0 -0.111328,0.1113 l -5.585938,5.5879 a 0.50004994,0.50004994 0 0 0 -0.121093,0.1191 l -5.324219,5.3242 c -0.373324,0.3733 -0.982994,0.3709 -1.392578,-0.039 l -3.5625,-3.5625 c -0.409585,-0.4096 -0.41434,-1.0193 -0.04102,-1.3926 l 16.472656,-16.4726 c 0.186659,-0.1867 0.433083,-0.279 0.683594,-0.2735 z m -12.835937,1.6641 c -0.386983,0 -0.774085,0.1452 -1.066407,0.4375 l -0.71289,0.7129 a 0.50004991,0.50004991 0 1 0 0.707031,0.707 l 0.712891,-0.7129 c 0.205102,-0.2051 0.511695,-0.2051 0.716796,0 l 2.851563,2.8516 a 0.50004991,0.50004991 0 1 0 0.707031,-0.7071 l -2.849609,-2.8515 a 0.50004991,0.50004991 0 0 0 -0.002,0 c -0.292275,-0.2923 -0.677424,-0.4375 -1.064406,-0.4375 z m 14.25,1 a 0.50004991,0.50004991 0 0 0 -0.34961,0.8574 l 0.712891,0.7129 c 0.205064,0.205 0.205136,0.5136 0,0.7187 l -2.851563,2.8516 a 0.50004991,0.50004991 0 1 0 0.707032,0.707 l 2.851562,-2.8515 c 0.58461,-0.5847 0.584682,-1.5483 0,-2.1328 l -0.712891,-0.7129 a 0.50004991,0.50004991 0 0 0 -0.357421,-0.1504 z m -7.828126,4.9883 a 0.50400192,0.50400192 0 0 0 -0.363281,0.1484 0.50400192,0.50400192 0 0 0 0,0.7129 0.50400192,0.50400192 0 0 0 0.710938,0 0.50400192,0.50400192 0 0 0 0,-0.7129 0.50400192,0.50400192 0 0 0 -0.347657,-0.1484 z m -1.425781,1.4257 a 0.50400192,0.50400192 0 0 0 -0.363281,0.1485 0.50400192,0.50400192 0 0 0 0,0.7129 0.50400192,0.50400192 0 0 0 0.712891,0 0.50400192,0.50400192 0 0 0 0,-0.7129 0.50400192,0.50400192 0 0 0 -0.34961,-0.1485 z m 2.138672,0.7129 a 0.50400192,0.50400192 0 0 0 -0.363281,0.1485 0.50400192,0.50400192 0 0 0 0,0.7129 0.50400192,0.50400192 0 0 0 0.710937,0 0.50400192,0.50400192 0 0 0 0,-0.7129 0.50400192,0.50400192 0 0 0 -0.347656,-0.1485 z m -3.564453,0.7129 a 0.50400192,0.50400192 0 0 0 -0.363281,0.1485 0.50400192,0.50400192 0 0 0 0,0.7129 0.50400192,0.50400192 0 0 0 0.71289,0 0.50400192,0.50400192 0 0 0 0,-0.7129 0.50400192,0.50400192 0 0 0 -0.349609,-0.1485 z m 5.703125,0 a 0.50400192,0.50400192 0 0 0 -0.365234,0.1485 0.50400192,0.50400192 0 0 0 0,0.7129 0.50400192,0.50400192 0 0 0 0.71289,0 0.50400192,0.50400192 0 0 0 0,-0.7129 0.50400192,0.50400192 0 0 0 -0.347656,-0.1485 z m -3.564453,0.7129 a 0.50400192,0.50400192 0 0 0 -0.363281,0.1485 0.50400192,0.50400192 0 0 0 0,0.7109 0.50400192,0.50400192 0 0 0 0.71289,0 0.50400192,0.50400192 0 0 0 0,-0.7109 0.50400192,0.50400192 0 0 0 -0.349609,-0.1485 z m 6.408203,0.4981 5.03125,5.0332 c 0.373323,0.3733 0.368575,0.981 -0.04102,1.3906 l -3.5625,3.5644 c -0.409592,0.4096 -1.019347,0.4122 -1.392578,0.039 l -5.03125,-5.0312 4.996094,-4.9961 z m -4.269531,0.2148 a 0.50400192,0.50400192 0 0 0 -0.365235,0.1465 0.50400192,0.50400192 0 0 0 0,0.7129 0.50400192,0.50400192 0 0 0 0.712891,0 0.50400192,0.50400192 0 0 0 0,-0.7129 0.50400192,0.50400192 0 0 0 -0.347656,-0.1465 z m -1.425782,1.4258 a 0.50400192,0.50400192 0 0 0 -0.363281,0.1465 0.50400192,0.50400192 0 0 0 0,0.7129 0.50400192,0.50400192 0 0 0 0.710938,0 0.50400192,0.50400192 0 0 0 0,-0.7129 0.50400192,0.50400192 0 0 0 -0.347657,-0.1465 z m -5.724609,0 a 0.50004991,0.50004991 0 0 0 -0.34375,0.1523 l -2.851562,2.8516 c -0.58458,0.5846 -0.58458,1.5462 0,2.1309 l 0.71289,0.7128 a 0.50004991,0.50004991 0 1 0 0.707032,-0.707 l -0.712891,-0.7129 c -0.205166,-0.2052 -0.205166,-0.5116 0,-0.7168 l 2.851562,-2.8515 a 0.50004991,0.50004991 0 0 0 -0.363281,-0.8594 z m 8.5625,2.8457 a 0.50004991,0.50004991 0 0 0 -0.347656,0.8594 l 2.849609,2.8515 c 0.584651,0.5847 1.548192,0.5845 2.132813,0 l 0.71289,-0.7129 a 0.50004991,0.50004991 0 1 0 -0.707031,-0.707 l -0.71289,0.7129 c -0.205141,0.2051 -0.511702,0.2051 -0.716797,0 l -2.851563,-2.8516 a 0.50004991,0.50004991 0 0 0 -0.359375,-0.1523 z" color="#000" font-family="sans-serif" font-weight="400" overflow="visible" white-space="normal"/></g></svg>