<svg xmlns="http://www.w3.org/2000/svg" xmlns:xlink="http://www.w3.org/1999/xlink" width="48" height="48" viewBox="0 0 48 48"><defs><linearGradient id="b" x1="949.87" x2="974.39" y1="518.014" y2="544.657" gradientTransform="matrix(1.53785 0 0 1.53785 -1454.353 211.343)" gradientUnits="userSpaceOnUse" xlink:href="#a"/><linearGradient id="a"><stop offset="0" stop-color="#24f7bc"/><stop offset="1" stop-color="#24c4fc"/></linearGradient></defs><g transform="translate(0 -1004.362)"><rect width="48" height="48" y="1004.362" fill="url(#b)" rx="10.144" ry="10.144"/><path fill="#fff" fill-rule="evenodd" style="line-height:normal;text-indent:0;text-align:start;text-decoration-line:none;text-decoration-style:solid;text-decoration-color:#000;text-transform:none;block-progression:tb;isolation:auto;mix-blend-mode:normal" d="m 20.714393,1018.6736 c -1.626013,0 -3.005438,1.0375 -3.53955,2.4805 -1.422355,0.095 -2.685338,0.9762 -3.240679,2.3047 -0.270718,0.6475 -0.34039,1.3399 -0.242221,2.0058 -1.30847,1.0711 -1.934185,2.7747 -1.60569,4.4414 0.210487,1.0681 0.78863,2.0041 1.601783,2.6699 -0.174744,1.2014 0.232195,2.4228 1.117341,3.2715 0.651542,0.6247 1.495359,0.9784 2.37142,1.0371 0.60599,1.639 2.268503,2.6772 4.031804,2.4454 1.210531,-0.1592 2.221096,-0.8875 2.7914,-1.8887 0.570302,1.0012 1.580867,1.7295 2.791398,1.8887 1.763302,0.2318 3.425815,-0.8064 4.031804,-2.4454 0.876062,-0.059 1.719878,-0.4124 2.371419,-1.0371 0.885147,-0.8487 1.292086,-2.0701 1.117342,-3.2715 0.813153,-0.6658 1.391297,-1.6018 1.601782,-2.6699 0.328497,-1.6667 -0.297219,-3.3703 -1.605688,-4.4414 0.09817,-0.6659 0.02849,-1.3583 -0.242222,-2.0058 -0.555087,-1.3279 -1.817168,-2.2094 -3.238725,-2.3047 -0.534635,-1.443 -1.915491,-2.4805 -3.541504,-2.4805 -1.413811,0 -2.635647,0.789 -3.285606,1.9414 -0.649961,-1.1524 -1.871797,-1.9414 -3.285608,-1.9414 z m 0,1 c 1.544927,0 2.785522,1.2395 2.785538,2.7813 a 0.50011863,0.50004991 0 0 0 0,0.033 l 0,13.0918 c 1.7e-5,1.3994 -1.031922,2.575 -2.422207,2.7578 -1.205252,0.1584 -2.341631,-0.4758 -2.859769,-1.5274 0.06312,-0.013 0.126717,-0.02 0.189479,-0.037 a 0.50036099,0.50029223 0 0 0 -0.257846,-0.9668 c -0.942772,0.2523 -1.946898,-10e-5 -2.650756,-0.6797 -0.540854,-0.5186 -0.837896,-1.2248 -0.85168,-1.9551 0.246136,0.116 0.499125,0.2192 0.767684,0.2911 a 0.50036106,0.50029231 0 0 0 0.257848,-0.9668 c -1.33058,-0.356 -2.339962,-1.4341 -2.605827,-2.7832 -0.229889,-1.1665 0.132809,-2.3546 0.943489,-3.1934 0.182839,0.3892 0.424914,0.7553 0.740336,1.0703 a 0.50011863,0.50004991 0 1 0 0.707129,-0.707 c -0.799729,-0.7986 -1.037248,-1.9972 -0.601646,-3.0391 0.372143,-0.8902 1.171758,-1.5078 2.101852,-1.666 -0.0069,0.093 -0.0293,0.1825 -0.0293,0.2774 a 0.50011863,0.50004991 0 1 0 1.000137,0 c 1.6e-5,-1.5418 1.240613,-2.7813 2.78554,-2.7813 z m 6.571214,0 c 1.544927,0 2.787477,1.2395 2.787494,2.7813 a 0.50011863,0.50004991 0 1 0 1.000138,0 c -1e-6,-0.095 -0.02237,-0.1843 -0.0293,-0.2774 0.929285,0.1587 1.728006,0.7764 2.099898,1.666 0.435603,1.0419 0.198082,2.2405 -0.601645,3.0391 a 0.50011863,0.50004991 0 1 0 0.707128,0.707 c 0.315422,-0.315 0.557496,-0.6811 0.740336,-1.0703 0.810681,0.8388 1.173377,2.0269 0.94349,3.1934 -0.265866,1.3491 -1.275248,2.4272 -2.605827,2.7832 a 0.50036099,0.50029223 0 0 0 0.257846,0.9668 c 0.26856,-0.072 0.521549,-0.1751 0.767684,-0.2911 -0.01378,0.7303 -0.310824,1.4365 -0.851678,1.9551 -0.70386,0.6796 -1.707985,0.932 -2.650756,0.6797 a 0.50036103,0.50029227 0 1 0 -0.257847,0.9668 c 0.06276,0.017 0.12635,0.024 0.189479,0.037 -0.518138,1.0516 -1.654517,1.6858 -2.859769,1.5274 -1.390285,-0.1828 -2.422224,-1.3584 -2.422207,-2.7578 l 0,-13.125 c 1.6e-5,-1.5418 1.240611,-2.7813 2.785538,-2.7813 z m -6.622004,0.6406 a 0.5007132,0.5006444 0 1 0 0.05079,1 c 0.637521,0 1.142744,0.5051 1.142734,1.1407 a 0.50011863,0.50004991 0 1 0 1.000138,0 c 1.8e-5,-1.1768 -0.965507,-2.1407 -2.142872,-2.1407 a 0.50011863,0.50004991 0 0 0 -0.05079,0 z m 6.622004,0 c -1.177365,0 -2.14289,0.9639 -2.142872,2.1407 a 0.50011863,0.50004991 0 1 0 1.000138,0 c -1e-5,-0.6356 0.505214,-1.1407 1.142734,-1.1407 a 0.50011863,0.50004991 0 1 0 0,-1 z m -9.616555,3.1563 a 0.50035,0.50028124 0 0 0 -0.478581,0.6601 c 0.06847,0.2051 0.154624,0.4014 0.255894,0.5899 -0.420653,-0.04 -0.846128,-0.038 -1.267752,0.039 a 0.50011863,0.50004991 0 1 0 0.181665,0.9825 c 0.843272,-0.1548 1.712977,0 2.455415,0.4238 a 0.50011863,0.50004991 0 0 0 0.01953,0.01 0.50011863,0.50004991 0 0 0 0.01172,0.01 0.50011863,0.50004991 0 0 0 0.03321,0.016 0.50011863,0.50004991 0 0 0 0.03906,0.014 0.50011863,0.50004991 0 0 0 0.01367,0.01 0.50011863,0.50004991 0 0 0 0.02344,0.01 0.50011863,0.50004991 0 0 0 0.03321,0.01 0.50011863,0.50004991 0 0 0 0.04883,0.01 0.50011863,0.50004991 0 0 0 0.04883,0 0.50011863,0.50004991 0 0 0 0.03711,0 0.50011863,0.50004991 0 0 0 0.09767,-0.02 0.50011863,0.50004991 0 0 0 0.01367,0 0.50011863,0.50004991 0 0 0 0.07814,-0.035 0.50011863,0.50004991 0 0 0 0.01172,-0.01 0.50011863,0.50004991 0 0 0 0.03125,-0.021 0.50011863,0.50004991 0 0 0 0.0098,-0.01 0.50011863,0.50004991 0 0 0 0.0293,-0.023 0.50011863,0.50004991 0 0 0 0.0098,-0.01 0.50011863,0.50004991 0 0 0 0.02735,-0.027 0.50011863,0.50004991 0 0 0 0.0078,-0.01 0.50011863,0.50004991 0 0 0 0.07814,-0.1133 0.50011863,0.50004991 0 0 1 0.002,0 0.50011863,0.50004991 0 0 0 0.0039,-0.01 0.50011863,0.50004991 0 0 0 0.0293,-0.082 0.50011863,0.50004991 0 0 0 0.0039,-0.012 0.50011863,0.50004991 0 0 0 0.0078,-0.037 0.50011863,0.50004991 0 0 0 0.002,-0.012 0.50011863,0.50004991 0 0 0 0.0039,-0.088 0.50011863,0.50004991 0 0 0 0,-0.012 0.50011863,0.50004991 0 0 0 -0.0039,-0.039 0.50011863,0.50004991 0 0 0 -0.002,-0.012 0.50011863,0.50004991 0 0 0 -0.0078,-0.037 0.50011863,0.50004991 0 0 0 -0.0039,-0.012 0.50011863,0.50004991 0 0 0 -0.0098,-0.035 0.50011863,0.50004991 0 0 0 -0.0039,-0.012 0.50011863,0.50004991 0 0 0 -0.01563,-0.035 0.50011863,0.50004991 0 0 0 -0.0059,-0.012 0.50011863,0.50004991 0 0 0 -0.01758,-0.033 0.50011863,0.50004991 0 0 0 -0.0059,-0.01 0.50011863,0.50004991 0 0 0 -0.02149,-0.031 0.50011863,0.50004991 0 0 0 -0.04102,-0.047 0.50011863,0.50004991 0 0 0 -0.02539,-0.027 0.50011863,0.50004991 0 0 0 -0.0098,-0.01 0.50011863,0.50004991 0 0 0 -0.0293,-0.023 0.50011863,0.50004991 0 0 0 -0.0098,-0.01 0.50011863,0.50004991 0 0 0 -0.03125,-0.02 c -0.55975,-0.3423 -0.980176,-0.8706 -1.187662,-1.4922 a 0.50035,0.50028124 0 0 0 -0.470768,-0.3437 z m 12.661897,0 a 0.5003501,0.50028134 0 0 0 -0.470769,0.3437 c -0.207486,0.6216 -0.627912,1.1499 -1.187662,1.4922 a 0.50011863,0.50004991 0 0 0 -0.01367,0.01 0.50011863,0.50004991 0 0 0 -0.01758,0.01 0.50011863,0.50004991 0 0 0 -0.0098,0.01 0.50011863,0.50004991 0 0 0 -0.0293,0.023 0.50011863,0.50004991 0 0 0 -0.0098,0.01 0.50011863,0.50004991 0 0 0 -0.02539,0.027 0.50011863,0.50004991 0 0 0 -0.05274,0.064 0.50011863,0.50004991 0 0 0 -0.01367,0.019 0.50011863,0.50004991 0 0 0 -0.01367,0.025 0.50011863,0.50004991 0 0 0 -0.0078,0.016 0.50011863,0.50004991 0 0 0 -0.0098,0.02 0.50011863,0.50004991 0 0 0 -0.01172,0.031 0.50011863,0.50004991 0 0 0 -0.002,0 0.50011863,0.50004991 0 0 0 -0.0098,0.035 0.50011863,0.50004991 0 0 0 -0.0098,0.039 0.50011863,0.50004991 0 0 0 -0.002,0.014 0.50011863,0.50004991 0 0 0 -0.0039,0.024 0.50011863,0.50004991 0 0 0 -0.002,0.023 0.50011863,0.50004991 0 0 0 0,0.012 0.50011863,0.50004991 0 0 0 0.0059,0.096 0.50011863,0.50004991 0 0 0 0.002,0.014 0.50011863,0.50004991 0 0 0 0.0059,0.027 0.50011863,0.50004991 0 0 0 0.0039,0.012 0.50011863,0.50004991 0 0 0 0.03321,0.092 0.50011863,0.50004991 0 0 0 0.002,0 0.50011863,0.50004991 0 0 0 0.002,0 0.50011863,0.50004991 0 0 0 0.07618,0.1094 0.50011863,0.50004991 0 0 0 0.0078,0.01 0.50011863,0.50004991 0 0 0 0.02735,0.027 0.50011863,0.50004991 0 0 0 0.0098,0.01 0.50011863,0.50004991 0 0 0 0.0293,0.023 0.50011863,0.50004991 0 0 0 0.0098,0.01 0.50011863,0.50004991 0 0 0 0.03125,0.021 0.50011863,0.50004991 0 0 0 0.01172,0.01 0.50011863,0.50004991 0 0 0 0.09377,0.039 0.50011863,0.50004991 0 0 0 0.13283,0.023 0.50011863,0.50004991 0 0 0 0.01172,0 0.50011863,0.50004991 0 0 0 0.03711,0 0.50011863,0.50004991 0 0 0 0.01367,0 0.50011863,0.50004991 0 0 0 0.03516,-0.01 0.50011863,0.50004991 0 0 0 0.01367,0 0.50011863,0.50004991 0 0 0 0.03516,-0.01 0.50011863,0.50004991 0 0 0 0.01367,0 0.50011863,0.50004991 0 0 0 0.111344,-0.049 c 0.0025,0 0.0053,0 0.0078,0 a 0.50011863,0.50004991 0 0 0 0.0039,0 c 0.739922,-0.423 1.604753,-0.5719 2.443695,-0.4179 a 0.50011863,0.50004991 0 1 0 0.181665,-0.9825 c -0.421624,-0.077 -0.847099,-0.079 -1.267752,-0.039 0.101096,-0.1885 0.187424,-0.3848 0.255894,-0.5899 a 0.5003501,0.50028134 0 0 0 -0.47858,-0.6601 z m -9.204391,1.5547 a 0.50011863,0.50004991 0 0 0 -0.410212,0.7558 c 0.538556,0.9316 0.384778,2.1006 -0.377005,2.8614 a 0.50071186,0.50064305 0 1 0 0.707129,0.7089 c 1.078647,-1.0772 1.300005,-2.7508 0.537183,-4.0703 a 0.50011863,0.50004991 0 0 0 -0.457095,-0.2558 z m 5.696096,0 a 0.50011863,0.50004991 0 0 0 -0.406305,0.2558 c -0.762824,1.3195 -0.541466,2.9931 0.537182,4.0703 a 0.50071186,0.50064305 0 1 0 0.707128,-0.7089 c -0.761783,-0.7608 -0.915561,-1.9298 -0.377005,-2.8614 a 0.50011863,0.50004991 0 0 0 -0.410212,-0.7558 0.50011863,0.50004991 0 0 0 -0.05078,0 z m -12.624782,3.8183 a 0.50011863,0.50004991 0 0 0 -0.441467,0.6367 c 0.153393,0.5717 0.456132,1.0934 0.87512,1.5118 a 0.50011863,0.50004991 0 1 0 0.705175,-0.7071 c -0.294805,-0.2944 -0.505499,-0.6624 -0.613365,-1.0644 a 0.50011863,0.50004991 0 0 0 -0.474675,-0.377 0.50011863,0.50004991 0 0 0 -0.05079,0 z m 19.551514,0 a 0.50011863,0.50004991 0 0 0 -0.47272,0.377 c -0.107867,0.402 -0.318561,0.77 -0.613366,1.0644 a 0.50011863,0.50004991 0 1 0 0.705175,0.7071 c 0.418988,-0.4184 0.721727,-0.9401 0.87512,-1.5118 a 0.50011863,0.50004991 0 0 0 -0.492254,-0.6367 0.50011863,0.50004991 0 0 1 -0.002,0 z m -13.853465,3.7735 0,0 a 0.50011863,0.50004991 0 0 0 -0.08595,0.01 0.50011863,0.50004991 0 0 0 -0.002,0 0.50011863,0.50004991 0 0 0 -0.136739,0.045 0.50011863,0.50004991 0 0 0 -0.0078,0 0.50011863,0.50004991 0 0 0 -0.0078,0 0.50011863,0.50004991 0 0 0 -0.01758,0.01 0.50011863,0.50004991 0 0 0 -0.01172,0.01 c -0.739954,0.423 -1.606715,0.572 -2.445648,0.418 a 0.50011863,0.50004991 0 1 0 -0.179713,0.9824 c 0.421987,0.078 0.84711,0.079 1.267753,0.039 -0.101096,0.1884 -0.187424,0.3847 -0.255895,0.5898 a 0.50011863,0.50004991 0 1 0 0.947396,0.3164 c 0.205992,-0.6171 0.622214,-1.1418 1.175943,-1.4843 a 0.50011863,0.50004991 0 0 0 0.0059,0 c 0.002,0 0.0038,0 0.0059,0 a 0.50011863,0.50004991 0 0 0 0.11525,-0.094 0.50011863,0.50004991 0 0 0 0.02344,-0.027 0.50011863,0.50004991 0 0 0 -0.0332,-0.6543 0.50011863,0.50004991 0 0 0 -0.02344,-0.024 0.50011863,0.50004991 0 0 0 -0.01367,-0.012 0.50011863,0.50004991 0 0 0 -0.002,0 0.50011863,0.50004991 0 0 0 -0.125016,-0.078 0.50011863,0.50004991 0 0 0 -0.0293,-0.012 0.50011863,0.50004991 0 0 0 -0.01758,-0.01 0.50011863,0.50004991 0 0 0 -0.0039,0 0.50011863,0.50004991 0 0 0 -0.04492,-0.012 0.50011863,0.50004991 0 0 0 -0.03125,-0.01 0.50011863,0.50004991 0 0 0 -0.05274,-0.01 l 0,0 a 0.50011863,0.50004991 0 0 0 -0.01367,0 z m 8.190578,0 a 0.50011863,0.50004991 0 0 0 -0.128925,0.023 0.50011863,0.50004991 0 0 0 -0.0039,0 0.50011863,0.50004991 0 0 0 -0.169945,0.094 0.50011863,0.50004991 0 0 1 -0.002,0 0.50011863,0.50004991 0 0 0 0.07619,0.8145 c 0.556737,0.3425 0.975064,0.8689 1.181802,1.4882 a 0.50011863,0.50004991 0 1 0 0.947396,-0.3164 c -0.06847,-0.2051 -0.154799,-0.4014 -0.255895,-0.5898 0.420642,0.039 0.845765,0.038 1.267752,-0.039 a 0.50011863,0.50004991 0 1 0 -0.179712,-0.9824 c -0.838932,0.154 -1.705694,0 -2.445648,-0.418 a 0.50011863,0.50004991 0 0 0 -0.0059,0 c -0.0018,-10e-4 -0.0041,-9e-4 -0.0059,0 a 0.50011863,0.50004991 0 0 0 -0.01758,-0.01 0.50011863,0.50004991 0 0 0 -0.01172,-0.01 0.50011863,0.50004991 0 0 0 -0.0039,0 0.50011863,0.50004991 0 0 0 -0.138692,-0.045 0.50011863,0.50004991 0 0 0 -0.08595,-0.01 l 0,0 a 0.50011863,0.50004991 0 0 0 -0.01367,0 l 0,0 a 0.50011863,0.50004991 0 0 0 -0.0039,0 z m -5.737117,2.457 a 0.50011863,0.50004991 0 0 0 -0.492255,0.5059 c 1.3e-5,0.6356 -0.505215,1.1425 -1.142734,1.1425 a 0.50011863,0.50004991 0 1 0 0,1 c 1.177365,0 2.142895,-0.9658 2.142872,-2.1425 a 0.50011863,0.50004991 0 0 0 -0.507883,-0.5059 z m 3.252401,0 a 0.50011863,0.50004991 0 0 0 -0.459048,0.5059 c -2.3e-5,1.1767 0.965507,2.1425 2.142872,2.1425 a 0.50011863,0.50004991 0 1 0 0,-1 c -0.637518,0 -1.142747,-0.5069 -1.142734,-1.1425 a 0.50011863,0.50004991 0 0 0 -0.492255,-0.5059 0.50011863,0.50004991 0 0 0 -0.04883,0 z" color="#000" font-family="sans-serif" font-weight="400" overflow="visible" white-space="normal"/></g></svg>