<svg xmlns="http://www.w3.org/2000/svg" xmlns:xlink="http://www.w3.org/1999/xlink" width="48" height="48" viewBox="0 0 48 48"><defs><linearGradient id="b" x1="1056.035" x2="1031.176" y1="544.13" y2="517.701" gradientTransform="matrix(1.53785 0 0 1.53785 -1581.737 211.343)" gradientUnits="userSpaceOnUse" xlink:href="#a"/><linearGradient id="a"><stop offset="0" stop-color="#5a5a5a"/><stop offset="1" stop-color="#656e85"/></linearGradient></defs><g transform="translate(0 -1004.362)"><rect width="48" height="48" y="1004.362" fill="url(#b)" rx="10.144" ry="10.144"/><path fill="#fff" style="line-height:normal;text-indent:0;text-align:start;text-decoration-line:none;text-decoration-style:solid;text-decoration-color:#000;text-transform:none;block-progression:tb;isolation:auto;mix-blend-mode:normal" d="m 21.145436,1020.3714 c -1.063883,0.07 -2.107961,0.4483 -2.990234,1.125 -0.607826,0.4662 -1.088877,1.0476 -1.447266,1.6914 -1.06963,0.2855 -1.936118,0.6243 -2.570312,1.0313 -0.648674,0.4163 -1.11525,0.9389 -1.136719,1.5957 -0.02148,0.6568 0.421758,1.2033 1.048828,1.6269 0.623299,0.421 1.481621,0.7719 2.558594,1.0664 0.387966,0.9385 0.832574,1.601 1.214844,2.3125 0.529818,0.986 0.989106,2.1321 1.18164,4.5801 l -0.002,-0.039 c 1.3e-5,0.7138 0.383573,1.3737 1.001953,1.7305 0.618347,0.3567 1.381653,0.3567 2,0 0.618381,-0.3568 0.999987,-1.0167 1,-1.7305 l 0,-2.832 c 0,-0.6769 0.472734,-1.168 1.001953,-1.168 0.529222,0 1,0.4911 1,1.168 l 0,2.832 c 1.4e-5,0.7138 0.381619,1.3737 1,1.7305 0.618348,0.3567 1.383608,0.3567 2.001953,0 0.618383,-0.3568 0.999987,-1.0167 1,-1.7305 l -0.002,0.049 c 0.245286,-2.4518 0.706056,-3.6047 1.22461,-4.5938 0.374952,-0.7152 0.804402,-1.3789 1.183593,-2.3183 0.556305,-0.1551 1.080916,-0.3226 1.535157,-0.5176 0.765547,-0.3286 1.325521,-0.6881 1.685547,-1.1367 0.360025,-0.4486 0.472482,-1.0559 0.25,-1.5606 -0.222483,-0.5048 -0.677188,-0.8917 -1.298828,-1.2363 -0.5915,-0.3278 -1.362442,-0.6114 -2.292969,-0.8594 -0.539776,-0.9671 -1.355562,-1.7856 -2.414063,-2.291 -1.594891,-0.7615 -3.378322,-0.6248 -4.86914,0.1426 -0.903743,-0.4657 -1.885449,-0.7321 -2.865235,-0.668 z m 0.06445,0.9981 c 0.591825,-0.039 1.161155,0.2069 1.732422,0.4042 -0.307299,0.267 -0.634747,0.5073 -0.882812,0.8477 a 0.50045136,0.50045136 0 0 0 0.808594,0.5898 c 1.278888,-1.755 3.619904,-2.3481 5.580078,-1.4121 1.960202,0.936 2.970425,3.1294 2.408203,5.2266 -0.06305,0.2352 -0.134362,0.4216 -0.203125,0.623 -2.976627,0.7102 -7.329115,0.9323 -11.060547,0.4297 a 0.50018287,0.50018287 0 1 0 -0.134766,0.9903 c 3.58226,0.4825 7.629928,0.3679 10.726563,-0.2676 -0.264952,0.5319 -0.548461,0.9987 -0.837891,1.5508 -0.557025,1.0625 -1.080982,2.4105 -1.335937,4.959 a 0.50018287,0.50018287 0 0 0 -0.002,0.051 c -5e-6,0.3579 -0.189752,0.6863 -0.5,0.8653 -0.310299,0.179 -0.691652,0.179 -1.001953,0 -0.310247,-0.179 -0.499993,-0.5074 -0.5,-0.8653 l 0.002,-2.8339 c 4e-6,-1.1639 -0.872612,-2.168 -2.001951,-2.168 -1.129338,0 -2.001953,1.0041 -2.001953,2.168 l 0,2.8339 c -6e-6,0.3579 -0.189753,0.6863 -0.5,0.8653 -0.310301,0.179 -0.689699,0.179 -1,0 -0.310246,-0.179 -0.499993,-0.5074 -0.5,-0.8653 a 0.50018287,0.50018287 0 0 0 -0.002,-0.041 c -0.200735,-2.5523 -0.726324,-3.9071 -1.298828,-4.9726 -0.572504,-1.0655 -1.138936,-1.7932 -1.548828,-3.3223 -0.471656,-1.7594 0.163531,-3.6273 1.609375,-4.7363 0.722921,-0.5545 1.575303,-0.863 2.445312,-0.92 z m 6.035157,1.5839 0,0 a 0.50018287,0.50018287 0 0 0 -0.103516,0.9864 c 1.102814,0.2885 1.867182,1.2787 1.86719,2.4179 a 0.50018287,0.50018287 0 1 0 1,0 c -1.1e-5,-1.5893 -1.077328,-2.9824 -2.615234,-3.3848 a 0.50018287,0.50018287 0 0 0 -0.148437,-0.022 z m 4.560547,1.4375 c 0.510354,0.1706 0.966016,0.3479 1.296874,0.5313 0.513702,0.2848 0.786011,0.5751 0.869141,0.7637 0.08313,0.1886 0.07852,0.2897 -0.115234,0.5312 -0.193753,0.2414 -0.623497,0.5549 -1.300781,0.8457 -0.220703,0.095 -0.488812,0.1763 -0.746094,0.2617 0.0042,-0.015 0.0096,-0.026 0.01367,-0.041 0.261764,-0.9765 0.239039,-1.9711 -0.01758,-2.8926 z m -15.587891,0 c -0.257081,0.9269 -0.287045,1.9199 -0.02734,2.8887 0.0035,0.013 0.0082,0.022 0.01172,0.035 -0.663422,-0.2244 -1.233395,-0.463 -1.591794,-0.7051 -0.481861,-0.3254 -0.615053,-0.592 -0.609375,-0.7656 0.0057,-0.1736 0.168619,-0.4604 0.677735,-0.7871 0.358843,-0.2303 0.908983,-0.4543 1.539062,-0.6661 z" color="#000" font-family="sans-serif" font-weight="400" overflow="visible" white-space="normal"/></g></svg>