<svg xmlns="http://www.w3.org/2000/svg" xmlns:xlink="http://www.w3.org/1999/xlink" width="48" height="48" viewBox="0 0 48 48"><defs><linearGradient id="b" x1="868.253" x2="937.656" y1="521.354" y2="588.736" gradientTransform="matrix(1.53785 0 0 1.53785 -1326.968 211.343)" gradientUnits="userSpaceOnUse" xlink:href="#a"/><linearGradient id="a"><stop offset="0" stop-color="#24f3d2"/><stop offset=".394" stop-color="#0674f0"/><stop offset=".507" stop-color="#6961b5"/><stop offset=".813" stop-color="#f34660"/><stop offset="1" stop-color="#ee078d"/></linearGradient></defs><g transform="translate(0 -1004.362)"><rect width="48" height="48" y="1004.362" fill="url(#b)" rx="10.144" ry="10.144"/><path fill="#fff" fill-rule="evenodd" style="line-height:normal;text-indent:0;text-align:start;text-decoration-line:none;text-decoration-style:solid;text-decoration-color:#000;text-transform:none;block-progression:tb;isolation:auto;mix-blend-mode:normal" d="m 22.396484,1017.3584 a 0.50004994,0.50004994 0 0 0 -0.347656,0.8594 l 0.351562,0.3516 -6.943359,6.9433 a 0.50004994,0.50004994 0 1 0 0.707031,0.7071 l 6.943359,-6.9434 0.501954,0.502 c 0.195364,0.1953 0.368925,0.4018 0.53125,0.6152 l -6.189454,6.1894 a 0.50004994,0.50004994 0 1 0 0.707032,0.7071 l 6.03125,-6.0313 c 0.26256,0.5089 0.447734,1.0453 0.550781,1.5938 l -4.085938,4.0859 a 0.50004994,0.50004994 0 1 0 0.707032,0.707 l 3.46875,-3.4687 c -0.06082,1.3912 -0.617756,2.7624 -1.683594,3.8281 -2.273213,2.2733 -5.931449,2.2595 -8.228515,-0.037 l -1.558594,-1.5586 a 0.50004994,0.50004994 0 1 0 -0.707031,0.707 l 1.558594,1.5606 c 2.033104,2.0328 5.012497,2.5251 7.492187,1.4785 -0.860103,2.0382 -0.677448,4.4114 0.544921,6.3223 a 0.50004994,0.50004994 0 0 0 0.07422,0.1191 c 0.247572,0.3701 0.534286,0.7237 0.861328,1.0508 l 1.560547,1.5605 a 0.50004994,0.50004994 0 1 0 0.707031,-0.707 l -0.353516,-0.3535 6.935547,-6.9336 a 0.50004994,0.50004994 0 0 0 -0.365234,-0.8574 0.50004994,0.50004994 0 0 0 -0.34375,0.1504 l -6.933594,6.9336 -0.5,-0.5 c -0.195071,-0.1951 -0.367168,-0.4042 -0.529297,-0.6172 l 6.177734,-6.1778 a 0.50004994,0.50004994 0 0 0 -0.363281,-0.8593 0.50004994,0.50004994 0 0 0 -0.34375,0.1523 l -6.021484,6.0215 c -0.262986,-0.5093 -0.447629,-1.0467 -0.550781,-1.5957 l 4.076172,-4.0762 a 0.50004994,0.50004994 0 0 0 -0.363282,-0.8574 0.50004994,0.50004994 0 0 0 -0.34375,0.1504 l -3.457031,3.457 c 0.06127,-1.3906 0.616337,-2.7589 1.681641,-3.8242 2.273223,-2.2735 5.929596,-2.2617 8.226561,0.035 l 1.560547,1.5605 a 0.50004994,0.50004994 0 1 0 0.707031,-0.707 l -1.558594,-1.5586 c -1.336664,-1.3367 -3.083852,-2.0105 -4.828124,-2.0176 -0.908714,-0.01 -1.814747,0.1763 -2.664062,0.5352 1.046281,-2.4792 0.552734,-5.457 -1.480469,-7.4903 l -1.560548,-1.5605 a 0.50004994,0.50004994 0 0 0 -0.359375,-0.1524 z" color="#000" font-family="sans-serif" font-weight="400" overflow="visible" white-space="normal"/></g></svg>