<svg xmlns="http://www.w3.org/2000/svg" xmlns:xlink="http://www.w3.org/1999/xlink" width="48" height="48" viewBox="0 0 48 48"><defs><linearGradient id="b" x1="868.253" x2="937.656" y1="521.354" y2="588.736" gradientTransform="matrix(1.53785 0 0 1.53785 -1326.968 211.343)" gradientUnits="userSpaceOnUse" xlink:href="#a"/><linearGradient id="a"><stop offset="0" stop-color="#24f3d2"/><stop offset=".394" stop-color="#0674f0"/><stop offset=".507" stop-color="#6961b5"/><stop offset=".813" stop-color="#f34660"/><stop offset="1" stop-color="#ee078d"/></linearGradient></defs><g transform="translate(0 -1004.362)"><rect width="48" height="48" y="1004.362" fill="url(#b)" rx="10.144" ry="10.144"/><path fill="#fff" style="line-height:normal;text-indent:0;text-align:start;text-decoration-line:none;text-decoration-style:solid;text-decoration-color:#000;text-transform:none;block-progression:tb;isolation:auto;mix-blend-mode:normal" d="m 23.8849,1016.87 c -2.087043,-0.1238 -4.051611,1.2309 -4.613281,3.3262 -0.64191,2.3945 0.786313,4.8701 3.18164,5.5117 2.395327,0.6415 4.873716,-0.787 5.515625,-3.1816 0.641909,-2.3945 -0.79022,-4.8683 -3.185547,-5.5098 -0.299416,-0.08 -0.600288,-0.1288 -0.898437,-0.1465 z m -0.06055,0.9981 c 0.06802,0 0.13675,0.025 0.205078,0.033 l -1.785153,6.6641 c -1.57843,-0.6741 -2.463511,-2.4022 -2.005859,-4.1094 0.439177,-1.6384 1.958172,-2.6874 3.585937,-2.5879 z m 1.171878,0.293 c 1.577217,0.6746 2.463271,2.3991 2.005859,4.1054 -0.45752,1.7068 -2.089086,2.7611 -3.792968,2.5567 l 1.787109,-6.6621 z m -8.443359,7.6972 c -0.872171,-0.01 -1.746374,0.3136 -2.416016,0.9668 -1.339275,1.3065 -1.356432,3.4504 -0.03906,4.7793 l 7.1875,7.25 c 1.317377,1.3285 3.477131,1.3456 4.816406,0.039 1.339284,-1.3064 1.35644,-3.4486 0.03906,-4.7774 l -7.187499,-7.25 c -0.658685,-0.6642 -1.52822,-1.0005 -2.400391,-1.0078 z m 13.826171,0.012 c -1.122507,0.08 -2.188431,0.697 -2.791015,1.7403 -0.964135,1.6692 -0.388522,3.8156 1.28125,4.7793 1.66978,0.9636 3.821022,0.3899 4.785156,-1.2793 0.964134,-1.6692 0.386582,-3.8196 -1.283203,-4.7832 -0.626163,-0.3614 -1.318683,-0.5053 -1.992188,-0.4571 z m -13.833984,0.9747 c 0.612461,0 1.223568,0.2449 1.69336,0.7187 l 3.228515,3.2559 -3.396484,3.3711 -3.257813,-3.2852 c -0.939582,-0.9478 -0.925708,-2.4375 0.0293,-3.3691 0.477507,-0.466 1.090664,-0.6965 1.703125,-0.6914 z m 13.900391,0.017 c 0.480315,-0.034 0.975112,0.07 1.425781,0.3301 1.052868,0.6076 1.495827,1.8524 1.123047,2.959 l -4.248047,-2.451 c 0.441793,-0.5015 1.05708,-0.793 1.699219,-0.8379 z m -2.199219,1.7051 4.246094,2.4512 c -0.772155,0.8756 -2.0702,1.1135 -3.123047,0.5058 -1.053377,-0.6078 -1.496633,-1.8503 -1.123047,-2.957 z m -6.074219,2.9629 3.253907,3.2832 c 0.939592,0.9478 0.925716,2.4395 -0.0293,3.3711 -0.955006,0.932 -2.456895,0.9185 -3.396485,-0.029 l -3.226562,-3.2539 3.398437,-3.3711 z" color="#000" font-family="sans-serif" font-weight="400" overflow="visible" white-space="normal"/></g></svg>