<svg xmlns="http://www.w3.org/2000/svg" xmlns:xlink="http://www.w3.org/1999/xlink" width="48" height="48" viewBox="0 0 48 48"><defs><linearGradient id="b" x1="992.183" x2="1019.298" y1="516.081" y2="545.959" gradientTransform="matrix(1.53785 0 0 1.53785 -1522.705 211.343)" gradientUnits="userSpaceOnUse" xlink:href="#a"/><linearGradient id="a"><stop offset="0" stop-color="#ff1679"/><stop offset="1" stop-color="#ff770b"/></linearGradient></defs><g transform="translate(0 -1004.362)"><rect width="48" height="48" y="1004.362" fill="url(#b)" rx="10.144" ry="10.144"/><path fill="#fff" style="line-height:normal;text-indent:0;text-align:start;text-decoration-line:none;text-decoration-style:solid;text-decoration-color:#000;text-transform:none;block-progression:tb;isolation:auto;mix-blend-mode:normal" d="m 26.842,1016.8601 c -0.983118,0 -1.967244,0.3725 -2.716797,1.1192 -1.499138,1.4932 -1.499142,3.9227 0,5.416 a 0.50004994,0.50004994 0 0 0 0.01367,0.012 l 5.507812,5.1289 a 0.50004994,0.50004994 0 0 0 0.339844,0.1348 l 0.0059,0 0.0039,0 a 0.50004994,0.50004994 0 0 0 0.339844,-0.1348 l 5.509765,-5.1289 c 1.563718,-1.4558 1.510985,-3.9344 0.01172,-5.4277 a 0.50004994,0.50004994 0 0 0 -0.164063,-0.1094 c 0,0 -0.002,0 -0.002,0 -1.507226,-1.3505 -3.815376,-1.3355 -5.265625,0.1094 l -0.435533,0.4336 -0.433593,-0.4336 c -0.749558,-0.7467 -1.731726,-1.1192 -2.714844,-1.1192 z m 0,0.9903 0,0 c 0.725307,0 1.450347,0.2787 2.009765,0.836 l 0.78711,0.7832 a 0.50004994,0.50004994 0 0 0 0.705078,0 l 0.787109,-0.7832 c 1.118872,-1.1148 2.900683,-1.1146 4.019532,0 a 0.50004994,0.50004994 0 0 0 0.0039,0 c 1.116744,1.1144 1.150477,2.9243 0.0098,3.9863 l -5.171874,4.8144 -5.160157,-4.8027 c -1.118811,-1.1145 -1.118774,-2.8857 0,-4 0.559414,-0.5573 1.284458,-0.8359 2.009766,-0.8359 z m -17.3378906,8.2617 a 0.50005,0.50005 0 0 0 -0.5,0.5 l 0,10.1836 a 0.50005,0.50005 0 0 0 0.5,0.5 l 2.7343746,0 2.736329,0 a 0.50005,0.50005 0 0 0 0.5,-0.5 l 0,-0.7363 9.339843,3.164 a 0.50005,0.50005 0 0 0 0.03906,0.01 c 1.087556,0.2759 2.342027,0.1122 3.291015,-0.5254 l 9.671875,-5.2558 a 0.50005,0.50005 0 0 0 0.0078,0 l 0.236328,-0.1348 c 0.807166,-0.4566 1.153253,-1.4505 0.792969,-2.3027 -0.306672,-0.7253 -0.909543,-1.0582 -1.38086,-1.127 l 0,0 c -0.471317,-0.069 -0.857422,0.064 -0.857422,0.064 a 0.50005,0.50005 0 0 0 -0.04883,0.022 l -5.332031,2.4726 c 0.0069,-0.067 0.02148,-0.1319 0.02148,-0.2012 0,-1.1234 -0.93062,-2.0371 -2.058593,-2.0371 l -4.439454,0 c -0.01914,-0.034 -0.04106,-0.082 -0.05859,-0.1133 -0.07935,-0.1434 -0.165294,-0.2816 -0.257813,-0.416 -0.185137,-0.2689 -0.396009,-0.5197 -0.628906,-0.748 -0.9317,-0.9128 -2.223079,-1.4746 -3.642578,-1.4746 l -4.695312,0 0,-0.8399 a 0.50005,0.50005 0 0 0 -0.5,-0.5 l -2.736329,0 -2.7343746,0 z m 0.4999996,1 2.234375,0 2.236329,0 0,9.1836 -2.236329,0 -2.234375,0 0,-9.1836 z m 5.470704,1.3398 4.695312,0 c 1.156623,0 2.192146,0.4554 2.941406,1.1895 0.187351,0.1836 0.357442,0.3841 0.50586,0.5996 0.07428,0.1079 0.14354,0.2192 0.207031,0.334 0.07835,0.1417 0.131549,0.228 0.173828,0.3262 l 0.128906,0.3027 0.439453,0 4.63086,0 c 0.598936,0 1.058593,0.4581 1.058593,1.0371 0,0.4343 -0.25867,0.7977 -0.640625,0.9531 l -0.0059,0 c -0.125875,0.05 -0.264529,0.08 -0.412109,0.08 l -6.955078,0 0,1 6.955078,0 c 0.209003,0 0.406869,-0.042 0.597656,-0.1 a 0.50070095,0.50070095 0 0 0 0.171875,-0.043 l 6.978515,-3.2363 c 0.0085,0 0.173519,-0.054 0.382813,-0.023 0.214613,0.031 0.420742,0.09 0.605469,0.5273 0.165091,0.3905 0.01634,0.8272 -0.365235,1.043 l -0.234375,0.1308 -9.707031,5.2774 a 0.50005,0.50005 0 0 0 -0.04102,0.025 c -0.659432,0.4431 -1.683492,0.5893 -2.484376,0.3867 l -0.002,0 -9.624999,-3.2598 0,-6.5527 z" color="#000" font-family="sans-serif" font-weight="400" overflow="visible" white-space="normal"/></g></svg>