<svg xmlns="http://www.w3.org/2000/svg" xmlns:xlink="http://www.w3.org/1999/xlink" width="48" height="48" viewBox="0 0 48 48"><defs><linearGradient id="b" x1="949.87" x2="974.39" y1="518.014" y2="544.657" gradientTransform="matrix(1.53785 0 0 1.53785 -1454.353 211.343)" gradientUnits="userSpaceOnUse" xlink:href="#a"/><linearGradient id="a"><stop offset="0" stop-color="#24f7bc"/><stop offset="1" stop-color="#24c4fc"/></linearGradient></defs><g transform="translate(0 -1004.362)"><rect width="48" height="48" y="1004.362" fill="url(#b)" rx="10.144" ry="10.144"/><path fill="#fff" fill-rule="evenodd" style="line-height:normal;text-indent:0;text-align:start;text-decoration-line:none;text-decoration-style:solid;text-decoration-color:#000;text-transform:none;block-progression:tb;isolation:auto;mix-blend-mode:normal" d="m 16.640634,1020.6491 c -1.443431,0 -2.886718,0.5514 -3.988281,1.6543 -2.203132,2.2057 -2.203143,5.7784 0,7.9843 a 0.50004994,0.50004994 0 0 0 0.01172,0.012 l 8.474609,7.9278 a 0.50004994,0.50004994 0 0 0 0.341797,0.1347 l 0.0059,0 0.0078,0 a 0.50004994,0.50004994 0 0 0 0.341797,-0.1347 l 7.976562,-7.4629 1.287109,3.3711 a 0.50005,0.50005 0 0 0 0.939453,-0.019 l 2.335938,-6.8575 1.216797,2.8457 a 0.50005,0.50005 0 0 0 0.458984,0.3028 l 2.441407,0 a 0.50005,0.50005 0 1 0 0,-1 l -2.111329,0 -1.597656,-3.7422 a 0.50005,0.50005 0 0 0 -0.47659,-0.3028 l 0,0 a 0.50005,0.50005 0 0 0 -0.457032,0.3379 l -2.310547,6.7832 -0.947265,-2.4804 c 1.992107,-2.1705 1.834975,-5.5922 -0.271485,-7.7012 a 0.50004994,0.50004994 0 0 0 -0.169921,-0.1133 c -2.212411,-2.0576 -5.653608,-2.0427 -7.806641,0.1133 l -0.857422,0.8574 -0.857422,-0.8574 c -1.10157,-1.1029 -2.54485,-1.6543 -3.988281,-1.6543 z m 0,0.9902 c 1.184486,0 2.36934,0.458 3.28125,1.3711 l 1.210937,1.2109 a 0.50004994,0.50004994 0 0 0 0.707032,0 l 1.210937,-1.2109 c 1.823874,-1.8264 4.738675,-1.8262 6.5625,0 1.770155,1.7721 1.871307,4.6319 0.166016,6.3984 l -2.384766,0 -1.572265,-2.4648 a 0.50005,0.50005 0 0 0 -0.896485,0.1152 l -1.404297,4.3809 -1.144531,-1.7989 a 0.50005,0.50005 0 0 0 -0.421875,-0.2324 l -3.447266,0 a 0.50005,0.50005 0 1 0 0,1 l 3.171876,0 1.572265,2.4668 a 0.50005,0.50005 0 0 0 0.896485,-0.1152 l 1.402343,-4.3809 1.146485,1.7989 a 0.50005,0.50005 0 0 0 0.421875,0.2304 l 1.607421,0 -7.240234,6.7754 -8.125,-7.6035 c -1.82382,-1.8261 -1.823764,-4.7444 0,-6.5703 0.911902,-0.9131 2.094811,-1.3711 3.279297,-1.3711 z" color="#000" font-family="sans-serif" font-weight="400" overflow="visible" white-space="normal"/></g></svg>