<svg xmlns="http://www.w3.org/2000/svg" xmlns:xlink="http://www.w3.org/1999/xlink" width="48" height="48" viewBox="0 0 48 48"><defs><linearGradient id="b" x1="992.183" x2="1019.298" y1="516.081" y2="545.959" gradientTransform="matrix(1.53785 0 0 1.53785 -1522.705 211.343)" gradientUnits="userSpaceOnUse" xlink:href="#a"/><linearGradient id="a"><stop offset="0" stop-color="#ff1679"/><stop offset="1" stop-color="#ff770b"/></linearGradient></defs><g transform="translate(0 -1004.362)"><rect width="48" height="48" y="1004.362" fill="url(#b)" rx="10.144" ry="10.144"/><path fill="#fff" fill-rule="evenodd" style="line-height:normal;text-indent:0;text-align:start;text-decoration-line:none;text-decoration-style:solid;text-decoration-color:#000;text-transform:none;block-progression:tb;isolation:auto;mix-blend-mode:normal" d="m 18.895982,1019.8056 c -1.509151,0 -3.018064,0.5765 -4.169922,1.7304 -1.237047,1.2391 -1.804376,2.8891 -1.71289,4.5098 -1.015057,0.3028 -1.797053,0.639 -2.324219,1.0566 -0.298441,0.2364 -0.531438,0.5096 -0.636719,0.8496 -0.1052811,0.34 -0.03984,0.7275 0.150391,1.0313 0.380406,0.6077 1.107591,0.9941 2.115234,1.3594 1.006233,0.3648 2.312614,0.6737 3.873047,0.916 l 7.44336,6.9687 a 0.50004994,0.50004994 0 0 0 0.341796,0.1348 l 0.0078,0 0.0078,0 a 0.50004994,0.50004994 0 0 0 0.341796,-0.1348 l 7.445313,-6.9707 c 1.383272,-0.2156 2.630462,-0.4845 3.626953,-0.8183 0.834907,-0.2797 1.466489,-0.5806 1.916016,-0.9414 0.449526,-0.3608 0.750383,-0.8633 0.660156,-1.3907 -0.09023,-0.5274 -0.4858,-0.914 -1.021484,-1.2441 -0.492363,-0.3034 -1.159398,-0.5694 -1.97461,-0.8145 0.07534,-1.6213 -0.514799,-3.2804 -1.74414,-4.5117 a 0.50004994,0.50004994 0 0 0 -0.160157,-0.1074 0.50004994,0.50004994 0 0 0 -0.0059,0 c -2.312915,-2.1629 -5.920849,-2.1497 -8.175781,0.1094 l -0.915949,0.9199 -0.917969,-0.9199 c -1.151866,-1.1539 -2.66077,-1.7305 -4.169922,-1.7305 l 0,0 z m 0,0.9882 c 1.250324,0 2.500643,0.4834 3.462891,1.4473 l 1.271484,1.2734 a 0.50004994,0.50004994 0 0 0 0.707032,0 l 1.271484,-1.2734 c 0.962276,-0.964 2.210844,-1.4473 3.460937,-1.4473 l 0,0 c 1.250095,10e-5 2.500641,0.4834 3.462891,1.4473 a 0.50004994,0.50004994 0 0 0 0.002,0 0.50004994,0.50004994 0 0 0 0.002,0 c 1.921219,1.9277 1.982472,5.075 0.0098,6.9218 l -1.216797,1.1387 c -3.107345,0.4519 -7.032438,0.6254 -10.802734,0.4004 a 0.50004997,0.50004997 0 1 0 -0.05859,0.998 c 3.297718,0.1968 6.679176,0.1077 9.599609,-0.2168 l -6.083984,5.6954 -8.550781,-8.0039 -0.0019,0 c -1.922628,-1.9279 -1.92195,-5.0087 0.0018,-6.9356 0.962239,-0.9639 2.212567,-1.4473 3.46289,-1.4473 z m -5.738281,6.2539 c 0.240616,1.0397 0.758887,2.0291 1.568359,2.8399 a 0.50004994,0.50004994 0 0 0 0.01172,0.012 l 0.08594,0.08 c -0.831239,-0.1766 -1.587427,-0.3664 -2.166016,-0.5762 -0.915539,-0.3319 -1.470009,-0.7296 -1.607422,-0.9492 -0.06873,-0.1098 -0.06463,-0.1371 -0.04297,-0.207 0.02166,-0.07 0.104235,-0.2021 0.302734,-0.3594 0.332836,-0.2637 0.97373,-0.564 1.847657,-0.8399 z m 21.691406,0.01 c 0.679255,0.2151 1.235464,0.4404 1.585938,0.6563 0.412085,0.2539 0.545739,0.4759 0.560547,0.5625 0.01481,0.087 -0.0029,0.202 -0.298828,0.4395 -0.295957,0.2376 -0.838547,0.5158 -1.607422,0.7734 -0.555975,0.1862 -1.231448,0.3474 -1.955078,0.498 l 0.0957,-0.088 c 0.849169,-0.7949 1.380931,-1.789 1.61914,-2.8418 z" color="#000" font-family="sans-serif" font-weight="400" overflow="visible" white-space="normal"/></g></svg>