<svg xmlns="http://www.w3.org/2000/svg" xmlns:xlink="http://www.w3.org/1999/xlink" width="48" height="48" viewBox="0 0 48 48"><defs><linearGradient id="b" x1="949.87" x2="974.39" y1="518.014" y2="544.657" gradientTransform="matrix(1.53785 0 0 1.53785 -1454.353 211.343)" gradientUnits="userSpaceOnUse" xlink:href="#a"/><linearGradient id="a"><stop offset="0" stop-color="#24f7bc"/><stop offset="1" stop-color="#24c4fc"/></linearGradient></defs><g transform="translate(0 -1004.362)"><rect width="48" height="48" y="1004.362" fill="url(#b)" rx="10.144" ry="10.144"/><path fill="#fff" fill-rule="evenodd" style="line-height:normal;text-indent:0;text-align:start;text-decoration-line:none;text-decoration-style:solid;text-decoration-color:#000;text-transform:none;block-progression:tb;isolation:auto;mix-blend-mode:normal" d="m 16.98173,1022.3624 a 0.50005,0.50005 0 0 0 -0.435546,0.3066 l -2.378907,5.6914 -4.6601558,0 a 0.50005,0.50005 0 1 0 0,1 l 4.9921878,0 a 0.50005,0.50005 0 0 0 0.460937,-0.3066 l 1.994141,-4.7696 3.578125,10.7344 a 0.50005,0.50005 0 0 0 0.943359,0.018 l 2.121094,-5.6758 2.410156,0 a 0.50005,0.50005 0 0 0 0.423828,-0.2344 l 1.917969,-3.0761 2.181641,6.9609 a 0.50005,0.50005 0 0 0 0.90039,0.1152 l 2.345704,-3.7656 4.722656,0 a 0.50005,0.50005 0 1 0 0,-1 l -5,0 a 0.50005,0.50005 0 0 0 -0.423828,0.2363 l -1.917969,3.0762 -2.179688,-6.9609 a 0.50005,0.50005 0 0 0 -0.902343,-0.1153 l -2.345704,3.7637 -2.480468,0 a 0.50005,0.50005 0 0 0 -0.46875,0.3262 l -1.746094,4.6738 -3.552735,-10.6562 a 0.50005,0.50005 0 0 0 -0.5,-0.3418 z" color="#000" font-family="sans-serif" font-weight="400" overflow="visible" white-space="normal"/></g></svg>