<svg xmlns="http://www.w3.org/2000/svg" xmlns:xlink="http://www.w3.org/1999/xlink" width="48" height="48" viewBox="0 0 48 48"><defs><linearGradient id="b" x1="992.183" x2="1019.298" y1="516.081" y2="545.959" gradientTransform="matrix(1.53785 0 0 1.53785 -1522.705 211.343)" gradientUnits="userSpaceOnUse" xlink:href="#a"/><linearGradient id="a"><stop offset="0" stop-color="#ff1679"/><stop offset="1" stop-color="#ff770b"/></linearGradient></defs><g transform="translate(0 -1004.362)"><rect width="48" height="48" y="1004.362" fill="url(#b)" rx="10.144" ry="10.144"/><path fill="#fff" style="line-height:normal;text-indent:0;text-align:start;text-decoration-line:none;text-decoration-style:solid;text-decoration-color:#000;text-transform:none;block-progression:tb;isolation:auto;mix-blend-mode:normal" d="m 23.492164,1018.3596 a 0.50005,0.50005 0 0 0 -0.492188,0.5078 l 0,0.9277 a 0.50005,0.50005 0 0 0 0.002,0.025 0.50005,0.50005 0 0 0 -0.002,0.045 c 7e-6,0.8221 0.67785,1.498 1.5,1.498 a 0.50005,0.50005 0 0 0 0.07813,-0.01 0.50005,0.50005 0 0 0 0.0059,0 l 4.916016,0 c 0.840012,0 1.5,0.6602 1.5,1.4981 0,0.8378 -0.660018,1.4961 -1.5,1.4961 l -11,0 a 0.50005,0.50005 0 1 0 0,1 l 11,0 c 0.839982,0 1.5,0.6602 1.5,1.498 0,0.8377 -0.660048,1.4981 -1.5,1.4981 l -11,0 a 0.50005,0.50005 0 0 0 -0.05078,0 0.50064426,0.50064426 0 1 0 0.05078,1 l 11,0 c 0.840012,0 1.5,0.6582 1.5,1.4961 0,0.8377 -0.660048,1.498 -1.5,1.498 l -11,0 a 0.50005,0.50005 0 1 0 0,1 l 6,0 c 0.840012,0 1.5,0.6602 1.5,1.4981 l 0,2.9882 a 0.50005,0.50005 0 1 0 1,0 l 0,-2.955 a 0.50005,0.50005 0 0 0 0,-0.033 l 0,-0.01 a 0.50005,0.50005 0 0 0 -0.01367,-0.1211 c -0.0268,-0.5125 -0.205964,-0.9832 -0.498047,-1.3692 l 3.011719,0 c 1.376052,0 2.5,-1.1229 2.5,-2.498 -4.8e-5,-0.8187 -0.403009,-1.5425 -1.015673,-1.9981 0.612226,-0.4562 1.015625,-1.1778 1.015625,-1.9961 0,-0.8187 -0.402963,-1.5419 -1.015625,-1.998 0.612662,-0.4556 1.015625,-1.1775 1.015625,-1.9961 0,-1.3753 -1.124008,-2.4981 -2.5,-2.4981 l -4.916016,0 a 0.50005,0.50005 0 0 0 -0.08398,0.01 c 0,0 -0.002,0 -0.002,0 -0.281382,-10e-4 -0.497998,-0.2177 -0.498,-0.498 a 0.50005,0.50005 0 0 0 -0.002,-0.027 0.50005,0.50005 0 0 0 0.002,-0.043 l 0,-0.9277 a 0.50005,0.50005 0 0 0 -0.507812,-0.5078 z m -2,0.019 a 0.50005,0.50005 0 0 0 -0.492188,0.5059 l 0,1.9648 a 0.50005,0.50005 0 0 0 0,0.01 c 0,0 -5e-6,0 0,0.01 a 0.50005,0.50005 0 0 0 0.0098,0.096 c 0.02164,0.5238 0.205801,1.0018 0.503906,1.3945 l -3.013672,0 c -1.376022,0 -2.5,1.1229 -2.5,2.4981 0,0.8188 0.402825,1.5419 1.015625,1.998 -0.612696,0.4562 -1.015659,1.1794 -1.015659,1.9981 0,0.8186 0.402965,1.5405 1.015625,1.9961 -0.612664,0.4561 -1.015625,1.1793 -1.015625,1.998 0,1.3752 1.123978,2.4981 2.5,2.4981 l 4.923828,0 a 0.50005,0.50005 0 0 0 0.02734,0 0.50064426,0.50064426 0 0 0 0.04883,0 c 0.28241,0 0.499998,0.217 0.5,0.498 l 0,2.0156 a 0.50005,0.50005 0 1 0 1,0 l 0,-1.9824 a 0.50005,0.50005 0 0 0 0,-0.033 l 0,-0.019 a 0.50005,0.50005 0 0 0 -0.01367,-0.1192 c -0.07193,-0.7572 -0.711533,-1.3593 -1.486328,-1.3593 a 0.50005,0.50005 0 0 0 -0.04102,0 0.50005,0.50005 0 0 0 -0.03516,0 l -4.923828,0 c -0.839982,0 -1.5,-0.6604 -1.5,-1.4981 0,-0.838 0.659988,-1.498 1.5,-1.498 l 11,0 a 0.50005,0.50005 0 0 0 0.05078,0 0.50005,0.50005 0 0 0 0.175781,-0.9473 0.50005,0.50005 0 0 0 -0.04492,-0.02 0.50005,0.50005 0 0 0 -0.181633,-0.031 l -11,0 c -0.839952,0 -1.5,-0.6584 -1.5,-1.4961 0,-0.8379 0.660018,-1.4981 1.5,-1.4981 l 11,0 a 0.50005,0.50005 0 0 0 0.05078,0 0.50005,0.50005 0 0 0 0.175781,-0.9472 0.50005,0.50005 0 0 0 -0.04492,-0.02 0.50005,0.50005 0 0 0 -0.181641,-0.031 l -11,0 c -0.840012,0 -1.5,-0.6601 -1.5,-1.498 0,-0.8378 0.660018,-1.4981 1.5,-1.4981 l 5,0 3.865234,0 2.134766,0 a 0.50005,0.50005 0 1 0 0,-1 l -2.099609,0 -3.900391,0 c -0.839977,0 -1.5,-0.6583 -1.5,-1.4961 a 0.50005,0.50005 0 0 0 0,-0.01 l 0,-1.9648 a 0.50005,0.50005 0 0 0 -0.507812,-0.5059 z" color="#000" font-family="sans-serif" font-weight="400" overflow="visible" white-space="normal"/></g></svg>