<svg xmlns="http://www.w3.org/2000/svg" xmlns:xlink="http://www.w3.org/1999/xlink" width="48" height="48" viewBox="0 0 48 48"><defs><linearGradient id="b" x1="1056.035" x2="1031.176" y1="544.13" y2="517.701" gradientTransform="matrix(1.53785 0 0 1.53785 -1581.737 211.343)" gradientUnits="userSpaceOnUse" xlink:href="#a"/><linearGradient id="a"><stop offset="0" stop-color="#5a5a5a"/><stop offset="1" stop-color="#656e85"/></linearGradient></defs><g transform="translate(0 -1004.362)"><rect width="48" height="48" y="1004.362" fill="url(#b)" rx="10.144" ry="10.144"/><path fill="#fff" style="line-height:normal;text-indent:0;text-align:start;text-decoration-line:none;text-decoration-style:solid;text-decoration-color:#000;text-transform:none;block-progression:tb;isolation:auto;mix-blend-mode:normal" d="m 14,1017.3622 c -1.12759,0 -2,0.9969 -2,2.1582 l 0,17.6856 c 0,1.1613 0.87241,2.1562 2,2.1562 l 20,0 c 1.12759,0 2,-0.9949 2,-2.1562 l 0,-17.6856 c 0,-1.1613 -0.87241,-2.1582 -2,-2.1582 l -20,0 z m 0,1 20,0 c 0.53441,0 1,0.4825 1,1.1582 l 0,17.6856 c 0,0.6757 -0.46559,1.1562 -1,1.1562 l -20,0 c -0.534409,0 -1,-0.4805 -1,-1.1562 l 0,-17.6856 c 0,-0.6757 0.465591,-1.1582 1,-1.1582 z m 0.5,1 a 0.50005,0.50005 0 0 0 -0.5,0.5 l 0,7.127 a 0.50005,0.50005 0 0 0 0,0.074 l 0,5.7988 a 0.50005,0.50005 0 0 0 0.5,0.5 l 19,0 a 0.50005,0.50005 0 0 0 0.5,-0.5 l 0,-5.7891 a 0.50005,0.50005 0 0 0 0,-0.074 l 0,-7.1367 a 0.50005,0.50005 0 0 0 -0.5,-0.5 l -19,0 z m 0.5,1 18,0 0,6.168 -2.775391,0 a 0.50005,0.50005 0 0 0 -0.460937,0.3027 l -1.128906,2.6367 -2.199219,-6.4316 a 0.50005,0.50005 0 0 0 -0.501953,-0.3379 l 0,0 a 0.50005,0.50005 0 0 0 -0.4375,0.3203 l -1.345703,3.5098 -1.462891,0 a 0.50005,0.50005 0 0 0 -0.421875,0.2304 l -1.058594,1.6602 -1.318359,-4.0977 a 0.50005,0.50005 0 0 0 -0.896484,-0.1172 l -1.486329,2.3242 -2.505859,0 0,-6.1699 z m 10.935547,4.3047 2.173828,6.3574 a 0.50005,0.50005 0 0 0 0.931641,0.033 l 1.513672,-3.5273 2.445312,0 0,4.832 -18,0 0,-4.8301 2.78125,0 a 0.50005,0.50005 0 0 0 0.419922,-0.2304 l 1.060547,-1.6602 1.316406,4.0977 a 0.50005,0.50005 0 0 0 0.898437,0.1171 l 1.484376,-2.3242 1.533203,0 a 0.50005,0.50005 0 0 0 0.466797,-0.3203 l 0.974609,-2.5449 z M 28.5,1034.3622 c -0.822505,0 -1.5,0.6775 -1.5,1.5 0,0.8225 0.677495,1.5 1.5,1.5 0.822505,0 1.5,-0.6775 1.5,-1.5 0,-0.8225 -0.677495,-1.5 -1.5,-1.5 z m 4,0 c -0.822505,0 -1.5,0.6775 -1.5,1.5 0,0.8225 0.677495,1.5 1.5,1.5 0.822505,0 1.5,-0.6775 1.5,-1.5 0,-0.8225 -0.677495,-1.5 -1.5,-1.5 z m -17,1 a 0.5,0.5 0 0 0 -0.5,0.5 0.5,0.5 0 0 0 0.5,0.5 0.5,0.5 0 0 0 0.5,-0.5 0.5,0.5 0 0 0 -0.5,-0.5 z m 2,0 a 0.5,0.5 0 0 0 -0.5,0.5 0.5,0.5 0 0 0 0.5,0.5 0.5,0.5 0 0 0 0.5,-0.5 0.5,0.5 0 0 0 -0.5,-0.5 z m 2,0 a 0.5,0.5 0 0 0 -0.5,0.5 0.5,0.5 0 0 0 0.5,0.5 0.5,0.5 0 0 0 0.5,-0.5 0.5,0.5 0 0 0 -0.5,-0.5 z m 9,0 c 0.282065,0 0.5,0.218 0.5,0.5 0,0.2821 -0.217935,0.5 -0.5,0.5 -0.282065,0 -0.5,-0.2179 -0.5,-0.5 0,-0.282 0.217935,-0.5 0.5,-0.5 z m 4,0 c 0.282065,0 0.5,0.218 0.5,0.5 0,0.2821 -0.217935,0.5 -0.5,0.5 -0.282065,0 -0.5,-0.2179 -0.5,-0.5 0,-0.282 0.217935,-0.5 0.5,-0.5 z" color="#000" font-family="sans-serif" font-weight="400" overflow="visible" white-space="normal"/></g></svg>