<svg xmlns="http://www.w3.org/2000/svg" xmlns:xlink="http://www.w3.org/1999/xlink" width="48" height="48" viewBox="0 0 48 48"><defs><linearGradient id="b" x1="1056.035" x2="1031.176" y1="544.13" y2="517.701" gradientTransform="matrix(1.53785 0 0 1.53785 -1581.737 211.343)" gradientUnits="userSpaceOnUse" xlink:href="#a"/><linearGradient id="a"><stop offset="0" stop-color="#5a5a5a"/><stop offset="1" stop-color="#656e85"/></linearGradient></defs><g transform="translate(0 -1004.362)"><rect width="48" height="48" y="1004.362" fill="url(#b)" rx="10.144" ry="10.144"/><path fill="#fff" style="line-height:normal;text-indent:0;text-align:start;text-decoration-line:none;text-decoration-style:solid;text-decoration-color:#000;text-transform:none;block-progression:tb;isolation:auto;mix-blend-mode:normal" d="m 17.495644,1015.3602 a 0.50005,0.50005 0 0 0 -0.5,0.5 l 0,3.002 a 0.50005,0.50005 0 0 0 0.5,0.5 l 1.5,0 0,2.0195 c -1.668224,0.1069 -2.998047,1.4851 -2.998047,3.1797 l 0,1.207 a 0.50005,0.50005 0 0 0 0,0.1875 l 0,9.8125 a 0.50005,0.50005 0 0 0 0,0.1875 l 0,1.2071 c 0,1.7641 1.437064,3.1992 3.201173,3.1992 l 9.613281,0 c 1.764107,0 3.199218,-1.4351 3.199219,-3.1992 l 0,-12.6016 c -1e-6,-1.7013 -1.33826,-3.0845 -3.015626,-3.1816 l 0,-2.0176 1.5,0 a 0.50005,0.50005 0 0 0 0.5,-0.5 l 0,-3.002 a 0.50005,0.50005 0 0 0 -0.5,-0.5 l -13,0 z m 0.5,1 12,0 0,2.002 -12,0 0,-2.002 z m 2,3.002 8,0 0,2 -8,0 0,-2 z m -0.796874,3 9.613281,0 c 1.227407,0 2.199218,0.9718 2.199219,2.1992 l 0,0.8008 -14.013673,0 0,-0.8008 c 0,-1.2274 0.973764,-2.1992 2.201173,-2.1992 z m -2.201173,4 14.013673,0 0,9 -14.013673,0 0,-9 z m 6.007813,1 a 0.50005,0.50005 0 0 0 -0.5,0.5 l 0,1.5 -1.5,0 a 0.50005,0.50005 0 0 0 -0.5,0.5 l 0,2 a 0.50005,0.50005 0 0 0 0.5,0.5 l 1.5,0 0,1.5 a 0.50005,0.50005 0 0 0 0.5,0.5 l 2,0 a 0.50005,0.50005 0 0 0 0.5,-0.5 l 0,-1.5 1.5,0 a 0.50005,0.50005 0 0 0 0.5,-0.5 l 0,-2 a 0.50005,0.50005 0 0 0 -0.5,-0.5 l -1.5,0 0,-1.5 a 0.50005,0.50005 0 0 0 -0.5,-0.5 l -2,0 z m 0.5,1 1,0 0,1.5 a 0.50005,0.50005 0 0 0 0.5,0.5 l 1.5,0 0,1 -1.5,0 a 0.50005,0.50005 0 0 0 -0.5,0.5 l 0,1.5 -1,0 0,-1.5 a 0.50005,0.50005 0 0 0 -0.5,-0.5 l -1.5,0 0,-1 1.5,0 a 0.50005,0.50005 0 0 0 0.5,-0.5 l 0,-1.5 z m -6.507813,8 14.013673,0 0,0.8008 c 0,1.2273 -0.971834,2.1992 -2.199219,2.1992 l -9.613281,0 c -1.227387,0 -2.201173,-0.9719 -2.201173,-2.1992 l 0,-0.8008 z" color="#000" font-family="sans-serif" font-weight="400" overflow="visible" white-space="normal"/></g></svg>