<svg xmlns="http://www.w3.org/2000/svg" xmlns:xlink="http://www.w3.org/1999/xlink" width="48" height="48" viewBox="0 0 48 48"><defs><linearGradient id="b" x1="868.253" x2="937.656" y1="521.354" y2="588.736" gradientTransform="matrix(1.53785 0 0 1.53785 -1326.968 211.343)" gradientUnits="userSpaceOnUse" xlink:href="#a"/><linearGradient id="a"><stop offset="0" stop-color="#24f3d2"/><stop offset=".394" stop-color="#0674f0"/><stop offset=".507" stop-color="#6961b5"/><stop offset=".813" stop-color="#f34660"/><stop offset="1" stop-color="#ee078d"/></linearGradient></defs><g transform="translate(0 -1004.362)"><rect width="48" height="48" y="1004.362" fill="url(#b)" rx="10.144" ry="10.144"/><path fill="#fff" style="line-height:normal;text-indent:0;text-align:start;text-decoration-line:none;text-decoration-style:solid;text-decoration-color:#000;text-transform:none;block-progression:tb;isolation:auto;mix-blend-mode:normal" d="m 19.466797,1014.3622 c -0.276173,-10e-5 -0.500074,0.2238 -0.5,0.5 l 0,4.5 -8.466796,0 c -0.276173,-10e-5 -0.5000752,0.2238 -0.500001,0.5 l 0,2.8848 0,0.2285 0,2.7324 0,0.3066 0,2.6934 0,0.3066 0,2.6934 0,0.3066 0,2.6446 0,0.4043 0,2.5957 0,0.4043 0,2.8008 c 10e-4,0.2754 0.224607,0.4981 0.500001,0.498 l 8.992187,0 9.966797,0 0.01172,0 8.99414,0 c 0.275393,10e-5 0.498972,-0.2226 0.5,-0.498 l 0,-2.8184 c 0.04709,-0.1185 0.04709,-0.2506 0,-0.3691 l 0,-2.6309 c 0.04709,-0.1185 0.04709,-0.2506 0,-0.3691 l 0,-2.6309 c 0.04709,-0.1185 0.04709,-0.2506 0,-0.3691 l 0,-2.6309 c 0.04709,-0.1185 0.04709,-0.2506 0,-0.3691 l 0,-2.6309 c 0.04709,-0.1185 0.04709,-0.2506 0,-0.3691 l 0,-2.7461 c 0.0068,-0.047 0.0068,-0.095 0,-0.1426 l 0,-2.9258 c 7.4e-5,-0.2762 -0.223827,-0.5001 -0.5,-0.5 l -8.505859,0 0,-4.5 c 7.4e-5,-0.2762 -0.223827,-0.5001 -0.5,-0.5 z m 0.5,1 8.992188,0 0,19.4063 c -0.01183,0.062 -0.01183,0.1256 0,0.1875 l 0,2.8125 c -0.01183,0.062 -0.01183,0.1256 0,0.1875 l 0,2.4082 -1.986328,0 0,-8.002 0.46875,0 c 0.705695,0.042 0.705695,-1.0396 0,-0.998 l -5.957032,0 c -0.705696,-0.042 -0.705696,1.0396 0,0.998 l 0.492188,0 0,8.002 -1.984375,0 0,-2.3809 c 0.02017,-0.08 0.02017,-0.164 0,-0.2441 l 0,-2.7559 c 0.02017,-0.08 0.02017,-0.164 0,-0.2441 l 0,-2.7559 c 0.02017,-0.08 0.02017,-0.164 0,-0.2441 l 0,-2.7559 c 0.02017,-0.08 0.02017,-0.164 0,-0.2441 l 0,-2.7559 c 0.02017,-0.08 0.02017,-0.164 0,-0.2441 l 0,-5.877 c 9.8e-5,-0.054 -0.0085,-0.1072 -0.02539,-0.1582 z m 3.509766,4 c -0.276173,-10e-5 -0.500074,0.2238 -0.5,0.5 l 0,1.5 -1.5,0 c -0.276173,-10e-5 -0.500074,0.2238 -0.5,0.5 l 0,2 c -7.4e-5,0.2762 0.223827,0.5001 0.5,0.5 l 1.5,0 0,1.5 c -7.4e-5,0.2762 0.223827,0.5001 0.5,0.5 l 1.998047,0 c 0.276173,10e-5 0.500074,-0.2238 0.5,-0.5 l 0,-1.5 1.498047,0 c 0.276173,10e-5 0.500074,-0.2238 0.5,-0.5 l 0,-2 c 7.4e-5,-0.2762 -0.223827,-0.5001 -0.5,-0.5 l -1.498047,0 0,-1.5 c 7.4e-5,-0.2762 -0.223827,-0.5001 -0.5,-0.5 z m -12.476562,1 1.982421,0 0,2 -1.982421,0 z m 2.982421,0 1.998047,0 0,2 -1.998047,0 z m 2.998047,0 1.986328,0 0,2 -1.986328,0 z m 6.994141,0 1,0 0,1.5 c -7.4e-5,0.2762 0.223827,0.5001 0.5,0.5 l 1.498047,0 0,1 -1.498047,0 c -0.276173,-10e-5 -0.500074,0.2238 -0.5,0.5 l 0,1.502 -1,0 0,-1.502 c 7.6e-5,-0.2754 -0.222637,-0.499 -0.498047,-0.5 l -1.5,0 0,-1 1.5,0 c 0.27541,-10e-4 0.498123,-0.2246 0.498047,-0.5 z m 5.996094,0 1.998046,0 0,2 -1.998046,0 z m 2.998046,0 1.998047,0 0,2 -1.998047,0 z m 2.998047,0 1.998047,0 0,2 -1.998047,0 z m -24.966796,3 1.982421,0 0,2.002 -1.982421,0 z m 2.982421,0 1.998047,0 0,2.002 -1.998047,0 z m 2.998047,0 1.986328,0 0,2.002 -1.986328,0 z m 12.990235,0 1.998046,0 0,2.002 -1.998046,0 z m 2.998046,0 1.998047,0 0,2.002 -1.998047,0 z m 2.998047,0 1.998047,0 0,2.002 -1.998047,0 z m -24.966796,3 1.982421,0 0,2.002 -1.982421,0 z m 2.982421,0 1.998047,0 0,2.002 -1.998047,0 z m 2.998047,0 1.986328,0 0,2.002 -1.986328,0 z m 12.990235,0 1.998046,0 0,2.002 -1.998046,0 z m 2.998046,0 1.998047,0 0,2.002 -1.998047,0 z m 2.998047,0 1.998047,0 0,2.002 -1.998047,0 z m -24.966796,3 1.982421,0 0,2.002 -1.982421,0 z m 2.982421,0 1.998047,0 0,2.002 -1.998047,0 z m 2.998047,0 1.986328,0 0,2.002 -1.986328,0 z m 12.990235,0 1.998046,0 0,2.002 -1.998046,0 z m 2.998046,0 1.998047,0 0,2.002 -1.998047,0 z m 2.998047,0 1.998047,0 0,2.002 -1.998047,0 z m -24.966796,3 1.982421,0 0,2.002 -1.982421,0 z m 2.982421,0 1.998047,0 0,2.002 -1.998047,0 z m 2.998047,0 1.986328,0 0,2.002 -1.986328,0 z m 5.996094,0 2.996094,0 0,8.002 -2.996094,0 z m 6.994141,0 1.998046,0 0,2.002 -1.998046,0 z m 2.998046,0 1.998047,0 0,2.002 -1.998047,0 z m 2.998047,0 1.998047,0 0,2.002 -1.998047,0 z m -24.966796,3 1.982421,0 0,2.002 -1.982421,0 z m 2.982421,0 1.998047,0 0,2.002 -1.998047,0 z m 2.998047,0 1.986328,0 0,2.002 -1.986328,0 z m 12.990235,0 1.998046,0 0,2.002 -1.998046,0 z m 2.998046,0 1.998047,0 0,2.002 -1.998047,0 z m 2.998047,0 1.998047,0 0,2.002 -1.998047,0 z m -24.966796,3 1.982421,0 0,2.002 -1.982421,0 z m 2.982421,0 1.998047,0 0,2.002 -1.998047,0 z m 2.998047,0 1.986328,0 0,2.002 -1.986328,0 z m 12.990235,0 1.998046,0 0,2.002 -1.998046,0 z m 2.998046,0 1.998047,0 0,2.002 -1.998047,0 z m 2.998047,0 1.998047,0 0,2.002 -1.998047,0 z" color="#000" font-family="sans-serif" font-weight="400" overflow="visible" white-space="normal"/></g></svg>