<svg xmlns="http://www.w3.org/2000/svg" xmlns:xlink="http://www.w3.org/1999/xlink" width="48" height="48" viewBox="0 0 48 48"><defs><linearGradient id="b" x1="906.952" x2="931.379" y1="515.915" y2="546.094" gradientTransform="matrix(1.53785 0 0 1.53785 -1388.719 211.343)" gradientUnits="userSpaceOnUse" xlink:href="#a"/><linearGradient id="a"><stop offset="0" stop-color="#ffd800"/><stop offset="1" stop-color="#ff6100"/></linearGradient></defs><g transform="translate(0 -1004.362)"><rect width="48" height="48" y="1004.362" fill="url(#b)" rx="10.144" ry="10.144"/><path fill="#fff" style="line-height:normal;text-indent:0;text-align:start;text-decoration-line:none;text-decoration-style:solid;text-decoration-color:#000;text-transform:none;block-progression:tb;isolation:auto;mix-blend-mode:normal" d="m 12.499871,1016.3605 a 0.50005,0.50005 0 0 0 -0.347656,0.8594 l 2.292968,2.2949 -0.53125,0.5293 a 0.50005,0.50005 0 0 0 0,0.707 l 1.416016,1.418 -0.08789,0.088 c -0.924857,0.9249 -0.924857,2.4345 0,3.3594 l 0.367188,0.3672 a 0.50005006,0.50005006 0 0 0 0.146484,0.1484 0.50005006,0.50005006 0 0 0 0.0039,0 l 1.625,1.625 a 0.50005006,0.50005006 0 0 0 0.002,0 0.50005006,0.50005006 0 0 0 0.134766,0.1328 l 1.628906,1.6289 a 0.50005006,0.50005006 0 0 0 0.144531,0.1465 0.50005006,0.50005006 0 0 0 0.0039,0 l 1.619141,1.6191 a 0.50005006,0.50005006 0 0 0 0.144531,0.1465 0.50005006,0.50005006 0 0 0 0.002,0 l 1.623047,1.6231 a 0.50005006,0.50005006 0 0 0 0.144531,0.1445 l 0.002,0 1.623047,1.625 a 0.50005006,0.50005006 0 0 0 0.144531,0.1445 l 1.34375,1.3438 -0.972656,0.9726 a 0.50005,0.50005 0 1 0 0.707032,0.7071 l 1.255859,-1.2559 0.0039,0 a 0.50005,0.50005 0 0 0 0.134766,-0.1367 0.50005,0.50005 0 0 0 0.0039,-0.01 l 1.34375,-1.3418 3.714844,3.7168 -0.527344,0.5273 a 0.50005006,0.50005006 0 1 0 0.707031,0.7071 l 0.814453,-0.8145 a 0.50005,0.50005 0 0 0 0.128907,-0.1289 l 1.640625,-1.6387 a 0.50005,0.50005 0 0 0 0.138595,-0.1426 l 0.808594,-0.8066 a 0.50005006,0.50005006 0 0 0 -0.363281,-0.8594 0.50005006,0.50005006 0 0 0 -0.34375,0.1523 l -0.527344,0.5274 -3.714843,-3.7168 1.425781,-1.4258 1.316406,-1.3164 a 0.50005,0.50005 0 0 0 -0.363281,-0.8574 0.50005,0.50005 0 0 0 -0.34375,0.1504 l -0.972656,0.9726 -10.705079,-10.7031 c -0.462427,-0.4624 -1.070677,-0.6934 -1.679687,-0.6934 -0.60901,0 -1.219214,0.231 -1.681641,0.6934 l -0.08789,0.09 -1.416015,-1.416 a 0.50005,0.50005 0 0 0 -0.361329,-0.1465 0.50005,0.50005 0 0 0 -0.345703,0.1465 l -0.53125,0.5313 -2.292968,-2.295 a 0.50005,0.50005 0 0 0 -0.359375,-0.1406 z m 3.537109,2.9766 1.0625,1.0625 -1.0625,1.0625 -1.0625,-1.0645 0.457032,-0.457 a 0.50005,0.50005 0 0 0 0.146484,-0.1465 l 0.458984,-0.457 z m 3.53711,0.5625 c 0.350479,0 0.701934,0.1375 0.974609,0.4101 l 10.705078,10.7031 -1.390625,1.3907 a 0.50005,0.50005 0 0 0 -0.02539,0.025 l -1.769532,1.7695 -1.416015,1.416 -1.0625,-1.0625 1.410156,-1.4097 a 0.50005006,0.50005006 0 0 0 -0.363281,-0.8575 0.50005006,0.50005006 0 0 0 -0.34375,0.1504 l -1.410157,1.4102 -1.0625,-1.0625 0.525391,-0.5235 a 0.50005006,0.50005006 0 0 0 -0.363281,-0.8593 0.50005006,0.50005006 0 0 0 -0.34375,0.1504 l -0.525391,0.5253 -1.0625,-1.0625 1.410157,-1.4082 a 0.50005006,0.50005006 0 0 0 -0.363282,-0.8593 0.50005006,0.50005006 0 0 0 -0.34375,0.1523 l -1.410156,1.4082 -1.060547,-1.0625 0.523438,-0.5234 a 0.50005006,0.50005006 0 0 0 -0.363282,-0.8594 0.50005006,0.50005006 0 0 0 -0.34375,0.1523 l -0.523437,0.5235 -1.0625,-1.0606 1.408203,-1.4101 a 0.50005006,0.50005006 0 0 0 -0.363281,-0.8574 0.50005006,0.50005006 0 0 0 -0.34375,0.1504 l -1.408203,1.4082 -1.0625,-1.0606 0.52539,-0.5254 a 0.50005006,0.50005006 0 0 0 -0.363281,-0.8574 0.50005006,0.50005006 0 0 0 -0.34375,0.1504 l -0.525391,0.5254 -0.08789,-0.09 c -0.545347,-0.5454 -0.545347,-1.3999 0,-1.9453 l 2.652344,-2.6543 c 0.272675,-0.2726 0.622178,-0.4101 0.972657,-0.4101 z m 10.617187,13.5898 3.714844,3.7168 -1.0625,1.0625 -3.714844,-3.7168 1.0625,-1.0625 z" color="#000" font-family="sans-serif" font-weight="400" overflow="visible" white-space="normal"/></g></svg>