<svg xmlns="http://www.w3.org/2000/svg" xmlns:xlink="http://www.w3.org/1999/xlink" width="48" height="48" viewBox="0 0 48 48"><defs><linearGradient id="b" x1="868.253" x2="937.656" y1="521.354" y2="588.736" gradientTransform="matrix(1.53785 0 0 1.53785 -1326.968 211.343)" gradientUnits="userSpaceOnUse" xlink:href="#a"/><linearGradient id="a"><stop offset="0" stop-color="#24f3d2"/><stop offset=".394" stop-color="#0674f0"/><stop offset=".507" stop-color="#6961b5"/><stop offset=".813" stop-color="#f34660"/><stop offset="1" stop-color="#ee078d"/></linearGradient></defs><g transform="translate(0 -1004.362)"><rect width="48" height="48" y="1004.362" fill="url(#b)" rx="10.144" ry="10.144"/><path fill="#fff" style="line-height:normal;text-indent:0;text-align:start;text-decoration-line:none;text-decoration-style:solid;text-decoration-color:#000;text-transform:none;block-progression:tb;isolation:auto;mix-blend-mode:normal" d="m 27.31075,1019.8601 c -1.299187,0 -2.310547,1.1492 -2.310547,2.5 0,1.3509 1.01136,2.5 2.310547,2.5 l 6.378906,0 c 1.299187,0 2.310547,-1.1491 2.310547,-2.5 0,-1.3508 -1.01136,-2.5 -2.310547,-2.5 l -6.378906,0 z m 0,1 2.689453,0 0,3 -2.689453,0 c -0.706083,0 -1.310547,-0.6348 -1.310547,-1.5 0,-0.8651 0.604464,-1.5 1.310547,-1.5 z m 3.689453,0 2.689453,0 c 0.706083,0 1.310547,0.6349 1.310547,1.5 0,0.8652 -0.604464,1.5 -1.310547,1.5 l -2.689453,0 0,-3 z m -21.4960936,2.252 a 0.50005,0.50005 0 0 0 -0.5,0.5 l 0,10.1836 a 0.50005,0.50005 0 0 0 0.5,0.5 l 2.7343746,0 2.736329,0 a 0.50005,0.50005 0 0 0 0.5,-0.5 l 0,-0.7363 9.339843,3.164 a 0.50005,0.50005 0 0 0 0.03906,0.01 c 1.087556,0.2759 2.342027,0.1122 3.291015,-0.5254 l 9.671875,-5.2558 a 0.50005,0.50005 0 0 0 0.0078,0 l 0.236328,-0.1348 c 0.807166,-0.4566 1.153253,-1.4505 0.792969,-2.3027 -0.306672,-0.7253 -0.909543,-1.0582 -1.38086,-1.127 l 0,0 c -0.471317,-0.069 -0.857422,0.064 -0.857422,0.064 a 0.50005,0.50005 0 0 0 -0.04883,0.022 l -5.332031,2.4726 c 0.0069,-0.067 0.02148,-0.1319 0.02148,-0.2012 0,-1.1234 -0.93062,-2.0371 -2.058593,-2.0371 l -4.439454,0 c -0.01914,-0.034 -0.04106,-0.082 -0.05859,-0.1133 -0.07935,-0.1434 -0.165294,-0.2816 -0.257813,-0.416 -0.185137,-0.2689 -0.396009,-0.5197 -0.628906,-0.748 -0.9317,-0.9128 -2.223079,-1.4746 -3.642578,-1.4746 l -4.695312,0 0,-0.8399 a 0.50005,0.50005 0 0 0 -0.5,-0.5 l -2.736329,0 -2.7343746,0 z m 0.4999996,1 2.234375,0 2.236329,0 0,9.1836 -2.236329,0 -2.234375,0 0,-9.1836 z m 5.470704,1.3398 4.695312,0 c 1.156623,0 2.192146,0.4554 2.941406,1.1895 0.187351,0.1836 0.357442,0.3841 0.50586,0.5996 0.07428,0.1079 0.14354,0.2192 0.207031,0.334 0.07835,0.1417 0.131549,0.228 0.173828,0.3262 l 0.128906,0.3027 0.439453,0 4.63086,0 c 0.598936,0 1.058593,0.4581 1.058593,1.0371 0,0.4343 -0.25867,0.7977 -0.640625,0.9531 l -0.0059,0 c -0.125875,0.05 -0.264529,0.08 -0.412109,0.08 l -6.955078,0 0,1 6.955078,0 c 0.209003,0 0.406869,-0.042 0.597656,-0.1 a 0.50070095,0.50070095 0 0 0 0.171875,-0.043 l 6.978515,-3.2363 c 0.0085,0 0.173519,-0.054 0.382813,-0.023 0.214613,0.031 0.420742,0.09 0.605469,0.5273 0.165091,0.3905 0.01634,0.8272 -0.365235,1.043 l -0.234375,0.1308 -9.707031,5.2774 a 0.50005,0.50005 0 0 0 -0.04102,0.025 c -0.659432,0.4431 -1.683492,0.5893 -2.484376,0.3867 l -0.002,0 -9.624999,-3.2598 0,-6.5527 z" color="#000" font-family="sans-serif" font-weight="400" overflow="visible" white-space="normal"/></g></svg>