<svg xmlns="http://www.w3.org/2000/svg" xmlns:xlink="http://www.w3.org/1999/xlink" width="48" height="48" viewBox="0 0 48 48"><defs><linearGradient id="b" x1="1056.035" x2="1031.176" y1="544.13" y2="517.701" gradientTransform="matrix(1.53785 0 0 1.53785 -1581.737 211.343)" gradientUnits="userSpaceOnUse" xlink:href="#a"/><linearGradient id="a"><stop offset="0" stop-color="#5a5a5a"/><stop offset="1" stop-color="#656e85"/></linearGradient></defs><g transform="translate(0 -1004.362)"><rect width="48" height="48" y="1004.362" fill="url(#b)" rx="10.144" ry="10.144"/><path fill="#fff" style="line-height:normal;text-indent:0;text-align:start;text-decoration-line:none;text-decoration-style:solid;text-decoration-color:#000;text-transform:none;block-progression:tb;isolation:auto;mix-blend-mode:normal" d="m 17.481456,1014.3632 a 0.4985124,0.49973135 0 0 0 -0.06231,0 l -1.294835,0 c -1.168016,0 -2.124307,0.8882 -2.124307,2.0592 l 0,2.8322 0,1.6279 c -0.0011,0.2774 0.223606,0.5026 0.50041,0.5016 l 0.484833,0 0,16.8487 c 0,1.1708 0.956297,2.1294 2.124307,2.1294 l 12.782839,0 c 1.168009,0 2.12434,-0.9586 2.124308,-2.1294 l 0,-16.8487 0.484833,0 c 0.276042,-10e-5 0.499511,-0.225 0.498462,-0.5016 l 0,-1.6279 0,-2.8322 -0.0019,0.018 c 0.03958,-1.1902 -0.954145,-2.0729 -2.122361,-2.0729 l -1.370772,0 a 0.49851243,0.49973138 0 0 0 -0.06036,0 0.49851243,0.49973138 0 0 0 -0.05063,0 l -2.879791,0 a 0.49851243,0.49973138 0 0 0 -0.06036,0 0.49851243,0.49973138 0 0 0 -0.05063,0 l -2.86616,0 a 0.4985124,0.49973135 0 0 0 -0.07399,0 0.4985124,0.49973135 0 0 0 -0.06231,0 l -2.854477,0 a 0.4985124,0.49973135 0 0 0 -0.07399,0 0.4985124,0.49973135 0 0 0 -0.06231,0 l -2.854478,0 a 0.4985124,0.49973135 0 0 0 -0.07399,0 z m -1.357142,1.0032 0.866468,0 0,3.4919 a 0.4985124,0.49973135 0 1 0 0.996925,0 l 0,-3.4919 1.99385,0 0,3.4919 a 0.4985124,0.49973135 0 1 0 0.996926,0 l 0,-3.4919 1.99385,0 0,3.4919 a 0.4985124,0.49973135 0 1 0 0.996925,0 l 0,-3.4919 1.99385,0 0,3.4939 a 0.49851243,0.49973138 0 1 0 0.996925,0 l 0,-3.4939 1.993851,0 0,3.4939 a 0.49851243,0.49973138 0 1 0 0.996925,0 l 0,-3.4939 0.924881,0 c 0.63277,0 1.149755,0.4243 1.12933,1.0385 l -0.0039,0.017 0,2.8322 0,1.1301 -17.002248,0 0,-1.1301 0,-2.8322 c 0,-0.6345 0.492465,-1.056 1.125436,-1.056 z m -0.140193,6.0177 15.033709,0 0,4.9753 -15.033709,0 0,-4.9753 z m 0,5.9747 15.033709,0 0,5.9942 -15.033709,0 0,-5.9942 z m 3.498974,0.9994 c -0.674082,-0.01 -0.674082,1.0089 0,0.9994 l 7.975401,0 c 0.674082,0.01 0.674082,-1.0089 0,-0.9994 l -7.975401,0 z m 0,2.9981 c -0.674082,-0.01 -0.674082,1.0089 0,0.9993 l 7.975401,0 c 0.674082,0.01 0.674082,-1.0088 0,-0.9993 l -7.975401,0 z m -3.498974,2.998 15.033709,0 0,3.8785 c 0,0.6345 -0.492478,1.13 -1.125435,1.13 l -12.782839,0 c -0.632957,0 -1.125435,-0.4955 -1.125435,-1.13 l 0,-3.8785 z" color="#000" font-family="sans-serif" font-weight="400" overflow="visible" white-space="normal"/></g></svg>