<svg xmlns="http://www.w3.org/2000/svg" xmlns:xlink="http://www.w3.org/1999/xlink" width="48" height="48" viewBox="0 0 48 48"><defs><linearGradient id="b" x1="1073.403" x2="1097.116" y1="516.451" y2="544.308" gradientTransform="matrix(1.53785 0 0 1.53785 -1643.872 211.343)" gradientUnits="userSpaceOnUse" xlink:href="#a"/><linearGradient id="a"><stop offset="0" stop-color="#16ff6a"/><stop offset="1" stop-color="#0090a5"/></linearGradient></defs><g transform="translate(0 -1004.362)"><rect width="48" height="48" y="1004.362" fill="url(#b)" rx="10.144" ry="10.144"/><path fill="#fff" style="line-height:normal;text-indent:0;text-align:start;text-decoration-line:none;text-decoration-style:solid;text-decoration-color:#000;text-transform:none;block-progression:tb;isolation:auto;mix-blend-mode:normal" d="m 23.5,1016.3619 c -4.688498,0 -8.499995,3.8115 -8.5,8.5 10e-7,1.2555 0.533083,2.7769 1.296875,4.4199 0.763792,1.6431 1.772434,3.394 2.779297,5.0039 2.013726,3.2196 4.025391,5.8789 4.02539,5.8789 a 0.50004997,0.50004997 0 0 0 0.796876,0 c 0,0 2.011664,-2.6593 4.02539,-5.8789 1.006863,-1.6099 2.015506,-3.3608 2.779297,-5.0039 0.763791,-1.643 1.296874,-3.1644 1.296875,-4.4199 -5e-6,-4.6885 -3.811503,-8.5 -8.5,-8.5 z m 0,1 c 4.148061,0 7.499995,3.3519 7.5,7.5 -1e-6,0.9537 -0.466915,2.4143 -1.203125,3.998 -0.73621,1.5837 -1.727565,3.3067 -2.720703,4.8946 -1.787175,2.8574 -3.235455,4.7689 -3.576172,5.2246 -0.340717,-0.4557 -1.788997,-2.3672 -3.576172,-5.2246 -0.993138,-1.5879 -1.984492,-3.3109 -2.720703,-4.8946 -0.736211,-1.5837 -1.203124,-3.0443 -1.203125,-3.998 4e-6,-4.1481 3.351938,-7.5 7.5,-7.5 z m 0,2 c -3.031644,0 -5.5,2.4684 -5.5,5.5 0,3.0317 2.468356,5.5 5.5,5.5 3.031644,0 5.5,-2.4683 5.5,-5.5 0,-3.0316 -2.468356,-5.5 -5.5,-5.5 z m 0,1 c 2.491204,0 4.5,2.0088 4.5,4.5 0,2.4912 -2.008796,4.5 -4.5,4.5 -2.491204,0 -4.5,-2.0088 -4.5,-4.5 0,-2.4912 2.008796,-4.5 4.5,-4.5 z m -0.0078,0.9941 A 0.50004997,0.50004997 0 0 0 23,1021.8619 l 0,2.5 -2.5,0 a 0.50004997,0.50004997 0 1 0 0,1 l 2.5,0 0,2.5 a 0.50004997,0.50004997 0 1 0 1,0 l 0,-2.5 2.5,0 a 0.50004997,0.50004997 0 1 0 0,-1 l -2.5,0 0,-2.5 a 0.50004997,0.50004997 0 0 0 -0.507812,-0.5059 z" color="#000" font-family="sans-serif" font-weight="400" overflow="visible" white-space="normal"/></g></svg>