<svg xmlns="http://www.w3.org/2000/svg" xmlns:xlink="http://www.w3.org/1999/xlink" width="48" height="48" viewBox="0 0 48 48"><defs><linearGradient id="a"><stop offset="0" stop-color="#ffd800"/><stop offset="1" stop-color="#ff6100"/></linearGradient><linearGradient id="b" x1="906.952" x2="931.379" y1="515.915" y2="546.094" gradientTransform="matrix(1.53785 0 0 1.53785 -1388.719 211.343)" gradientUnits="userSpaceOnUse" xlink:href="#a"/></defs><g transform="translate(0 -1004.362)"><rect width="48" height="48" y="1004.362" fill="url(#b)" rx="10.144" ry="10.144"/><path fill="#fff" style="line-height:normal;text-indent:0;text-align:start;text-decoration-line:none;text-decoration-style:solid;text-decoration-color:#000;text-transform:none;block-progression:tb;isolation:auto;mix-blend-mode:normal" d="m 13.515944,1021.3619 a 0.50005,0.50005 0 0 0 -0.04883,0 0.50005,0.50005 0 0 0 -0.208984,0.9355 l 3.248047,1.8613 0,3.7071 a 0.50214492,0.49796367 0 0 0 0.251953,0.4316 l 3.246093,1.8574 0,3.4082 -3.24414,1.8574 a 0.50088907,0.50088907 0 1 0 0.498047,0.8692 l 3.242187,-1.8535 3.248047,1.8594 a 0.50214492,0.49796367 0 0 0 0.501953,0 l 3.248047,-1.8594 3.244141,1.8574 a 0.50040406,0.50040406 0 0 0 0.496093,-0.8691 l -3.242187,-1.8555 0,-3.4121 3.24414,-1.8574 a 0.50214492,0.49796367 0 0 0 0.251954,-0.4316 l 0,-3.709 3.25,-1.8614 a 0.50005,0.50005 0 0 0 -0.273438,-0.9355 l 0,0 a 0.50005,0.50005 0 0 0 -0.222656,0.066 l -3.253906,1.8613 -3.244141,-1.8574 a 0.50214492,0.49796367 0 0 0 -0.503906,0 l -3.244141,1.8598 -3.246094,-1.8574 a 0.50214492,0.49796367 0 0 0 -0.501953,0 l -3.248047,1.8593 -3.25,-1.8613 a 0.50005,0.50005 0 0 0 -0.238281,-0.07 z m 6.986328,1.0781 2.992188,1.7129 0,3.4219 -2.996094,1.7168 -2.988281,-1.7129 0,-3.4258 2.992187,-1.7129 z m 6.994141,0 2.992187,1.7129 0,3.4278 -2.988281,1.7109 -2.996094,-1.7168 0,-3.4219 2.992188,-1.7129 z m -7.029297,2.9278 a 0.49954066,0.49967235 0 0 0 -0.462891,0.5 0.49954066,0.49967235 0 0 0 0.498047,0.498 0.49954066,0.49967235 0 0 0 0.5,-0.498 0.49954066,0.49967235 0 0 0 -0.5,-0.5 0.49954066,0.49967235 0 0 0 -0.03516,0 z m 6.994141,0 a 0.49954066,0.49967235 0 0 0 -0.464844,0.5 0.49954066,0.49967235 0 0 0 0.5,0.498 0.49954066,0.49967235 0 0 0 0.5,-0.498 0.49954066,0.49967235 0 0 0 -0.5,-0.5 0.49954066,0.49967235 0 0 0 -0.03516,0 z m -3.460938,3.0742 2.992188,1.7129 0,3.4218 -2.992188,1.7129 -2.992188,-1.7148 0,-3.4199 2.992188,-1.7129 z m -0.03516,2.9219 a 0.49954066,0.49967235 0 0 0 -0.46484,0.5 0.49954066,0.49967235 0 0 0 0.5,0.498 0.49954066,0.49967235 0 0 0 0.498047,-0.498 0.49954066,0.49967235 0 0 0 -0.498047,-0.5 0.49954066,0.49967235 0 0 0 -0.03516,0 z" color="#000" font-family="sans-serif" font-weight="400" overflow="visible" white-space="normal"/></g></svg>