<svg xmlns="http://www.w3.org/2000/svg" xmlns:xlink="http://www.w3.org/1999/xlink" width="48" height="48" viewBox="0 0 48 48"><defs><linearGradient id="b" x1="868.253" x2="937.656" y1="521.354" y2="588.736" gradientTransform="matrix(1.53785 0 0 1.53785 -1326.968 211.34)" gradientUnits="userSpaceOnUse" xlink:href="#a"/><linearGradient id="a"><stop offset="0" stop-color="#24f3d2"/><stop offset=".394" stop-color="#0674f0"/><stop offset=".507" stop-color="#6961b5"/><stop offset=".813" stop-color="#f34660"/><stop offset="1" stop-color="#ee078d"/></linearGradient></defs><g transform="translate(0 -1004.36)"><rect width="48" height="48" y="1004.36" fill="url(#b)" rx="10.144" ry="10.144"/><path fill="#fff" style="line-height:normal;text-indent:0;text-align:start;text-decoration-line:none;text-decoration-style:solid;text-decoration-color:#000;text-transform:none;block-progression:tb;isolation:auto;mix-blend-mode:normal" d="m 24.000001,1017.36 c -0.778658,0 -1.498728,0.3754 -2.101562,0.9707 -0.602836,0.5954 -1.112076,1.4159 -1.53711,2.4082 -0.129067,0.3014 -0.246609,0.6232 -0.359375,0.9551 -0.34577,-0.057 -0.687126,-0.1032 -1.013672,-0.1309 -1.075176,-0.091 -2.039127,-0.028 -2.847656,0.2246 -0.80852,0.2525 -1.475782,0.7129 -1.841797,1.4004 -0.366014,0.6874 -0.376384,1.5002 -0.134765,2.3125 0.241632,0.8122 0.726883,1.6483 1.402343,2.4903 0.09872,0.123 0.211494,0.2459 0.31836,0.3691 -0.107224,0.1236 -0.219341,0.2477 -0.31836,0.3711 -0.67546,0.842 -1.160725,1.6761 -1.402343,2.4883 -0.241628,0.8123 -0.233211,1.6251 0.132812,2.3125 0.366006,0.6875 1.035221,1.1479 1.84375,1.4004 0.80852,0.2525 1.77248,0.3159 2.847656,0.2246 0.326419,-0.028 0.666022,-0.074 1.011719,-0.1309 0.112819,0.3322 0.232189,0.6555 0.361328,0.957 0.425034,0.9923 0.934275,1.813 1.53711,2.4083 0.602833,0.5953 1.322904,0.9687 2.101562,0.9687 0.778658,0 1.498728,-0.3734 2.101562,-0.9687 0.602835,-0.5953 1.112076,-1.416 1.53711,-2.4083 0.128841,-0.3008 0.246776,-0.6237 0.359375,-0.955 0.346352,0.057 0.686664,0.1031 1.013672,0.1308 1.075167,0.091 2.039131,0.026 2.847656,-0.2265 0.808529,-0.2525 1.477735,-0.7129 1.84375,-1.4004 0.366014,-0.6874 0.37444,-1.4983 0.132813,-2.3106 -0.241628,-0.8123 -0.726892,-1.6502 -1.402344,-2.4922 -0.09879,-0.1231 -0.209443,-0.2458 -0.316406,-0.3691 0.10677,-0.1231 0.217769,-0.2462 0.316406,-0.3691 0.675452,-0.842 1.160715,-1.6799 1.402344,-2.4922 0.241627,-0.8123 0.233202,-1.6232 -0.132813,-2.3106 -0.366014,-0.6875 -1.035221,-1.1479 -1.84375,-1.4004 -0.808529,-0.2524 -1.772488,-0.3158 -2.847656,-0.2246 -0.32642,0.028 -0.666053,0.074 -1.011719,0.1309 -0.112819,-0.3321 -0.232189,-0.6536 -0.361328,-0.9551 -0.425034,-0.9923 -0.934275,-1.8128 -1.53711,-2.4082 -0.602834,-0.5953 -1.322904,-0.9707 -2.101562,-0.9707 z m 0,1 c 0.463204,0 0.925201,0.2142 1.398438,0.6816 0.473235,0.4673 0.933469,1.184 1.322265,2.0918 0.100343,0.2343 0.180872,0.5132 0.271485,0.7715 -0.957251,0.221 -1.962143,0.5422 -2.994141,0.959 -1.030449,-0.4163 -2.034381,-0.738 -2.990235,-0.959 0.09061,-0.2583 0.171142,-0.5372 0.271485,-0.7715 0.388796,-0.9078 0.84903,-1.6245 1.322265,-2.0918 0.473237,-0.4674 0.935234,-0.6816 1.398438,-0.6816 z m -5.806641,4.1641 c 0.227735,0 0.465083,0.014 0.710938,0.035 0.253517,0.021 0.538466,0.082 0.808594,0.1231 -0.231063,0.8594 -0.402278,1.798 -0.521485,2.789 -0.985766,0.6882 -1.876516,1.4078 -2.613281,2.1446 -0.07108,-0.083 -0.163947,-0.1691 -0.230469,-0.252 -0.617817,-0.7701 -1.034927,-1.5128 -1.224609,-2.1504 -0.189682,-0.6377 -0.161264,-1.1473 0.05664,-1.5566 0.217905,-0.4093 0.625054,-0.7179 1.259766,-0.916 0.476033,-0.1488 1.070701,-0.2241 1.753905,-0.2168 z m 11.613282,0 c 0.68346,-0.01 1.279825,0.07 1.755859,0.2187 0.634711,0.1982 1.039908,0.5067 1.257812,0.916 0.217905,0.4092 0.248276,0.9171 0.05859,1.5547 -0.189682,0.6377 -0.608754,1.3802 -1.226562,2.1504 -0.06604,0.082 -0.157974,0.1671 -0.228516,0.25 -0.736694,-0.7361 -1.629735,-1.4551 -2.615234,-2.1426 -0.11929,-0.9916 -0.29019,-1.9311 -0.521485,-2.791 0.270079,-0.041 0.55512,-0.1 0.808594,-0.1211 0.245854,-0.021 0.483117,-0.033 0.710938,-0.035 z m -2.50586,0.332 c 0.16063,0.5874 0.292369,1.2207 0.400391,1.8867 -0.439888,-0.2712 -0.878143,-0.5425 -1.351563,-0.7949 -0.350309,-0.1868 -0.697915,-0.3362 -1.046875,-0.502 0.689501,-0.2411 1.359331,-0.4452 1.998047,-0.5898 z m -6.601562,0 c 0.638172,0.1445 1.307213,0.347 1.996093,0.5879 -0.348211,0.1654 -0.695397,0.3137 -1.044921,0.5 -0.473502,0.2524 -0.911654,0.5255 -1.351563,0.7969 0.107914,-0.6654 0.23997,-1.2979 0.400391,-1.8848 z m 3.300781,1.0762 c 0.620098,0.2632 1.249757,0.563 1.878906,0.8984 0.710124,0.3786 1.369322,0.7838 1.996094,1.2031 0.07488,0.749 0.123047,1.5228 0.123047,2.3262 0,0.8033 -0.04818,1.5751 -0.123047,2.3242 -0.626276,0.419 -1.286365,0.8267 -1.996094,1.2051 -0.630548,0.3361 -1.25926,0.6347 -1.880859,0.8984 -0.62026,-0.2633 -1.249757,-0.563 -1.878906,-0.8984 -0.709678,-0.3783 -1.367903,-0.7842 -1.994141,-1.2031 -0.07499,-0.7498 -0.123047,-1.5221 -0.123047,-2.3262 0,-0.8034 0.04816,-1.5772 0.123047,-2.3262 0.626771,-0.4193 1.28597,-0.8265 1.996094,-1.205 0.629151,-0.3354 1.258807,-0.6333 1.878906,-0.8965 z m -4.929688,2.8593 c -0.03255,0.516 -0.06836,1.0316 -0.06836,1.5684 0,0.5373 0.03575,1.0518 0.06836,1.5684 -0.677742,-0.5159 -1.285422,-1.0408 -1.810546,-1.5684 0.525222,-0.5276 1.132678,-1.0525 1.810546,-1.5684 z m 9.859376,0 c 0.677412,0.5156 1.285568,1.0392 1.810546,1.5664 -0.525205,0.5278 -1.132665,1.0544 -1.810546,1.5704 0.03261,-0.5166 0.06836,-1.0311 0.06836,-1.5684 0,-0.5368 -0.03581,-1.0524 -0.06836,-1.5684 z m -4.929688,0.068 c -0.822328,0 -1.5,0.6777 -1.5,1.5 0,0.8224 0.677672,1.5 1.5,1.5 0.822328,0 1.5,-0.6776 1.5,-1.5 0,-0.8223 -0.677672,-1.5 -1.5,-1.5 z m 0,1 c 0.281549,0 0.5,0.2178 0.5,0.5 0,0.2823 -0.218451,0.5 -0.5,0.5 -0.28155,0 -0.5,-0.2177 -0.5,-0.5 0,-0.2822 0.21845,-0.5 0.5,-0.5 z m -7.423828,1.2441 c 0.737225,0.7372 1.630503,1.4563 2.617187,2.1446 0.119208,0.9907 0.288586,1.9298 0.519532,2.789 -0.270526,0.041 -0.554767,0.1015 -0.808594,0.1231 -0.983414,0.083 -1.830132,0.015 -2.464844,-0.1836 -0.634711,-0.1982 -1.041869,-0.5048 -1.259765,-0.9141 -0.217914,-0.4093 -0.246322,-0.9189 -0.05664,-1.5566 0.189681,-0.6376 0.604847,-1.3803 1.222656,-2.1504 0.06647,-0.083 0.159438,-0.1685 0.230469,-0.252 z m 14.847656,0 c 0.07103,0.083 0.164003,0.1691 0.230469,0.252 0.617822,0.7702 1.032974,1.5107 1.222656,2.1484 0.189681,0.6376 0.161264,1.1475 -0.05664,1.5567 -0.217905,0.4093 -0.625053,0.7178 -1.259765,0.916 -0.634711,0.198 -1.481421,0.2666 -2.464844,0.1836 -0.253472,-0.022 -0.538466,-0.08 -0.808594,-0.1211 0.231349,-0.8604 0.402195,-1.8007 0.521485,-2.793 0.985901,-0.6879 1.878471,-1.406 2.615234,-2.1426 z m -3.722656,2.8711 c -0.108061,0.6669 -0.23964,1.3007 -0.400391,1.8887 -0.63877,-0.1447 -1.30847,-0.3486 -1.998047,-0.5898 0.349298,-0.1659 0.696279,-0.3151 1.046875,-0.502 0.473502,-0.2524 0.911698,-0.5256 1.351563,-0.7969 z m -7.402344,0 c 0.439795,0.2712 0.878145,0.5426 1.351563,0.795 0.350596,0.1869 0.697577,0.336 1.046875,0.5019 -0.688937,0.241 -1.359812,0.4433 -1.998047,0.5879 -0.160391,-0.587 -0.292486,-1.2193 -0.400391,-1.8848 z m 3.701172,1.8809 c 1.030901,0.4165 2.035907,0.7398 2.992188,0.9609 -0.09052,0.2581 -0.171259,0.5375 -0.271485,0.7715 -0.388796,0.9078 -0.84903,1.6245 -1.322265,2.0918 -0.473238,0.4674 -0.935234,0.6797 -1.398438,0.6797 -0.463204,0 -0.925201,-0.2123 -1.398438,-0.6797 -0.473235,-0.4673 -0.933469,-1.184 -1.322265,-2.0918 -0.100452,-0.2345 -0.180784,-0.5147 -0.271485,-0.7734 0.956254,-0.2212 1.961318,-0.5425 2.992188,-0.959 z" color="#000" font-family="sans-serif" font-weight="400" overflow="visible" white-space="normal"/></g></svg>