<svg xmlns="http://www.w3.org/2000/svg" xmlns:xlink="http://www.w3.org/1999/xlink" width="48" height="48" viewBox="0 0 48 48"><defs><linearGradient id="b" x1="906.952" x2="931.379" y1="515.915" y2="546.094" gradientTransform="matrix(1.53785 0 0 1.53785 -1388.719 211.343)" gradientUnits="userSpaceOnUse" xlink:href="#a"/><linearGradient id="a"><stop offset="0" stop-color="#ffd800"/><stop offset="1" stop-color="#ff6100"/></linearGradient></defs><g transform="translate(0 -1004.362)"><rect width="48" height="48" y="1004.362" fill="url(#b)" rx="10.144" ry="10.144"/><path fill="#fff" style="line-height:normal;text-indent:0;text-align:start;text-decoration-line:none;text-decoration-style:solid;text-decoration-color:#000;text-transform:none;block-progression:tb;isolation:auto;mix-blend-mode:normal" d="m 21.85332,1016.1801 c -0.858016,-0.078 -1.802088,0.2805 -2.507812,0.9863 -0.989903,0.9898 -1.299626,2.4503 -0.673828,3.4824 -1.001864,0.9468 -1.653981,1.3162 -2.173828,1.5391 -0.576454,0.247 -1.139145,0.3813 -1.748047,0.9902 -0.344418,0.3444 -0.500174,0.7785 -0.486328,1.1563 0.01385,0.3779 0.150404,0.6843 0.259766,0.9394 0.109361,0.2551 0.191628,0.4637 0.205078,0.586 0.01345,0.1223 0.02374,0.148 -0.115235,0.2832 -0.748064,0.728 -2.260475,0.8464 -4.458984,3.0449 a 0.50005,0.50005 0 1 0 0.707031,0.707 c 2.044132,-2.0441 3.343355,-1.9589 4.449219,-3.0351 0.324503,-0.3158 0.450968,-0.7561 0.412109,-1.1094 -0.03886,-0.3534 -0.177513,-0.6291 -0.28125,-0.8711 -0.103736,-0.242 -0.172696,-0.4445 -0.177734,-0.582 -0.005,-0.1375 0.0074,-0.2263 0.193359,-0.4122 0.451759,-0.4517 0.772611,-0.494 1.433594,-0.7773 0.600586,-0.2574 1.395533,-0.7214 2.486328,-1.752 1.033431,0.6467 2.505795,0.3458 3.503906,-0.6523 1.129158,-1.1291 1.373404,-2.8707 0.353516,-3.8906 -0.382458,-0.3825 -0.86605,-0.5859 -1.38086,-0.6328 z m -0.128906,0.9961 c 0.31783,0.023 0.599406,0.1404 0.802735,0.3437 0.542209,0.5422 0.469924,1.6512 -0.353516,2.4746 -0.807898,0.808 -1.886776,0.89 -2.439453,0.3809 a 0.50005,0.50005 0 0 0 -0.07031,-0.07 c -0.498904,-0.5557 -0.414323,-1.6287 0.388669,-2.4317 0.51465,-0.5146 1.142159,-0.736 1.671875,-0.6972 z m 9.322266,1.125 c -0.858017,-0.078 -1.802089,0.2805 -2.507813,0.9863 -0.989903,0.9899 -1.299625,2.4503 -0.673828,3.4824 -1.002176,0.9468 -1.655934,1.3163 -2.175781,1.5391 -0.576454,0.2471 -1.139145,0.3813 -1.748047,0.9902 -0.344418,0.3444 -0.498221,0.7785 -0.484375,1.1563 0.01385,0.3779 0.148451,0.6843 0.257813,0.9394 0.109361,0.2551 0.193581,0.4636 0.207031,0.5859 0.01345,0.1223 0.02179,0.148 -0.117188,0.2832 -0.748059,0.7281 -2.260472,0.8465 -4.458984,3.045 a 0.50005,0.50005 0 1 0 0.707031,0.707 c 2.044128,-2.0442 3.345304,-1.9589 4.451172,-3.0352 0.324503,-0.3158 0.450968,-0.754 0.412109,-1.1074 -0.03886,-0.3534 -0.177513,-0.6311 -0.28125,-0.873 -0.103736,-0.242 -0.172695,-0.4446 -0.177734,-0.5821 -0.005,-0.1375 0.0055,-0.2262 0.191406,-0.4121 0.451759,-0.4517 0.774564,-0.4941 1.435547,-0.7773 0.600207,-0.2573 1.394663,-0.7208 2.484375,-1.75 1.033433,0.6467 2.507742,0.3438 3.50586,-0.6543 1.129158,-1.1291 1.373403,-2.8708 0.353515,-3.8906 -0.382458,-0.3825 -0.866049,-0.5859 -1.380859,-0.6328 z m -0.13086,0.998 c 0.31783,0.023 0.601359,0.1384 0.804688,0.3418 0.542209,0.5422 0.469924,1.6532 -0.353516,2.4766 -0.807898,0.8079 -1.886776,0.888 -2.439453,0.3789 a 0.50005,0.50005 0 0 0 -0.07031,-0.07 c -0.499074,-0.5557 -0.414403,-1.6285 0.388672,-2.4317 0.51465,-0.5146 1.140205,-0.7341 1.669921,-0.6953 z m 2.251954,8.1934 c -0.858017,-0.078 -1.80209,0.2825 -2.507813,0.9882 -0.989904,0.99 -1.299625,2.4484 -0.673828,3.4805 -1.002177,0.9471 -1.655934,1.3183 -2.175781,1.541 -0.576454,0.2471 -1.139146,0.3794 -1.748047,0.9883 -0.344418,0.3444 -0.498221,0.7804 -0.484375,1.1582 0.01385,0.3778 0.148451,0.6824 0.257812,0.9375 0.109362,0.2551 0.193582,0.4656 0.207032,0.5879 0.01345,0.1223 0.02374,0.1479 -0.115235,0.2832 -0.748059,0.7281 -2.262423,0.8464 -4.460937,3.0449 a 0.50005,0.50005 0 1 0 0.707031,0.7071 c 2.044126,-2.0441 3.345303,-1.9589 4.451172,-3.0352 0.324503,-0.3159 0.450968,-0.756 0.412109,-1.1094 -0.03886,-0.3534 -0.177514,-0.631 -0.28125,-0.873 -0.103736,-0.242 -0.172696,-0.4426 -0.177734,-0.5801 -0.005,-0.1375 0.0074,-0.2262 0.193359,-0.4121 0.451759,-0.4518 0.772611,-0.496 1.433594,-0.7793 0.600207,-0.2573 1.394663,-0.7208 2.484375,-1.75 1.033433,0.6467 2.507741,0.3439 3.505859,-0.6543 1.129157,-1.1291 1.373404,-2.8688 0.353516,-3.8887 -0.382458,-0.3824 -0.86605,-0.5878 -1.380859,-0.6347 z m -0.13086,0.998 c 0.31783,0.023 0.601359,0.1404 0.804688,0.3438 0.54221,0.5423 0.469924,1.6512 -0.353516,2.4746 -0.809013,0.809 -1.891385,0.8904 -2.443359,0.3789 a 0.50005,0.50005 0 0 0 -0.0039,-0.01 0.50005,0.50005 0 0 0 -0.04883,-0.049 c -0.514471,-0.551 -0.435417,-1.6349 0.375,-2.4453 0.51465,-0.5146 1.140206,-0.736 1.669922,-0.6972 z" color="#000" font-family="sans-serif" font-weight="400" overflow="visible" white-space="normal"/></g></svg>