<svg xmlns="http://www.w3.org/2000/svg" xmlns:xlink="http://www.w3.org/1999/xlink" width="48" height="48" viewBox="0 0 48 48"><defs><linearGradient id="b" x1="949.87" x2="974.39" y1="518.014" y2="544.657" gradientTransform="matrix(1.53785 0 0 1.53785 -1454.353 211.343)" gradientUnits="userSpaceOnUse" xlink:href="#a"/><linearGradient id="a"><stop offset="0" stop-color="#24f7bc"/><stop offset="1" stop-color="#24c4fc"/></linearGradient></defs><g transform="translate(0 -1004.362)"><rect width="48" height="48" y="1004.362" fill="url(#b)" rx="10.144" ry="10.144"/><path fill="#fff" style="line-height:normal;text-indent:0;text-align:start;text-decoration-line:none;text-decoration-style:solid;text-decoration-color:#000;text-transform:none;block-progression:tb;isolation:auto;mix-blend-mode:normal" d="m 28.512654,1014.3646 c -0.522996,-0.03 -1.02258,0.2238 -1.31836,0.6465 l -1.53125,-0.4121 a 0.50005,0.50005 0 0 0 -0.148437,-0.018 l 0,0.01 a 0.50005,0.50005 0 0 0 -0.462891,0.3652 l -0.322265,1.1524 -0.982422,3.6699 a 0.50005,0.50005 0 0 0 -0.0098,0.031 c -5.36e-4,0 -0.0014,0 -0.002,0.01 l -0.773437,2.8887 c -0.793633,2.9618 0.606894,5.9855 3.203124,7.3769 l -0.177734,0.6582 c -0.167575,0.6254 0.09713,1.268 0.603516,1.6192 l -1.964763,7.3339 c -0.790859,2.9515 -3.78481,4.6796 -6.736328,3.8887 -2.95153,-0.7946 -4.679531,-3.7886 -3.888672,-6.74 l 1.099609,-4.1055 1.164063,-4.3457 c 0.328402,-1.2256 -0.237169,-2.4782 -1.28711,-3.0859 0.121684,-1.1967 -0.632942,-2.3472 -1.830078,-2.668 -1.327945,-0.3558 -2.706678,0.4396 -3.0625,1.7676 -0.3558224,1.3279 0.439633,2.7047 1.767578,3.0605 1.117332,0.2994 2.262972,-0.2214 2.8125,-1.1836 0.555488,0.4144 0.827214,1.1314 0.634766,1.8496 l -1.166016,4.3477 -1.099609,4.1055 c -0.929771,3.4699 1.125758,7.0293 4.595703,7.959 3.469955,0.9299 7.031169,-1.1258 7.960938,-4.5957 l 1.964844,-7.334 c 0.612909,-0.052 1.162844,-0.4754 1.330078,-1.0996 l 0.177734,-0.6641 c 2.937893,0.085 5.655175,-1.8309 6.447266,-4.7871 l 0.77539,-2.8926 a 0.50005,0.50005 0 0 0 0.01172,-0.049 l 0.978515,-3.6504 0.320312,-1.1504 a 0.50005,0.50005 0 0 0 -0.351562,-0.6172 l -1.539063,-0.4101 c -0.05151,-0.6133 -0.474808,-1.1627 -1.099609,-1.3301 -0.794472,-0.2129 -1.62501,0.266 -1.837891,1.0605 -0.212889,0.7945 0.266063,1.6231 1.060547,1.836 0.62493,0.1674 1.26795,-0.096 1.619141,-0.6016 l 1.048828,0.2812 -0.185547,0.6661 -1.005859,3.7558 c -0.808108,2.9053 -3.77842,4.6023 -6.710938,3.8164 -2.949935,-0.7904 -4.677593,-3.774 -3.890625,-6.7109 a 0.50005,0.50005 0 0 0 0.01172,-0.057 l 0.978515,-3.6465 0.1875,-0.6719 1.050782,0.2812 c 0.05002,0.6149 0.475441,1.1662 1.101562,1.334 0.794474,0.2129 1.623059,-0.266 1.835938,-1.0605 0.212872,-0.7944 -0.266071,-1.6231 -1.060547,-1.836 -0.09931,-0.027 -0.197737,-0.043 -0.296875,-0.049 z m -0.16211,1 c 0.06448,-0.01 0.13306,0 0.201172,0.014 0.272453,0.073 0.426516,0.3409 0.353516,0.6133 -0.073,0.2726 -0.340832,0.4265 -0.613281,0.3535 -0.272464,-0.073 -0.426516,-0.3408 -0.353516,-0.6133 0.05475,-0.2044 0.218677,-0.3419 0.412109,-0.3672 z m 5.794922,1.5527 c 0.06448,-0.01 0.13306,0 0.201172,0.014 0.272453,0.073 0.426516,0.3409 0.353516,0.6133 -0.073,0.2726 -0.338879,0.4265 -0.611328,0.3535 -0.272454,-0.073 -0.426516,-0.3408 -0.353516,-0.6133 0.05475,-0.2043 0.216724,-0.3419 0.410156,-0.3672 z m -10.320312,6.5157 c 0.64822,2.038 2.286781,3.7163 4.511719,4.3125 2.221723,0.5954 4.477158,-0.034 6.05664,-1.4707 -0.965896,2.6455 -3.786362,4.1416 -6.574219,3.3945 -2.791763,-0.748 -4.487036,-3.4584 -3.99414,-6.2363 z m -11.238282,0.123 c 0.09984,0.01 0.200041,0.022 0.300782,0.049 0.80592,0.2159 1.276492,1.0319 1.060546,1.8378 -0.215945,0.8059 -1.030017,1.2765 -1.835937,1.0606 -0.80592,-0.216 -1.276493,-1.032 -1.060547,-1.8379 0.188952,-0.7052 0.836256,-1.1529 1.535156,-1.1094 z m -0.105468,0.9981 a 0.5,0.5 0 0 0 -0.462891,0.3711 0.5,0.5 0 0 0 0.353516,0.6132 0.5,0.5 0 0 0 0.611328,-0.3535 0.5,0.5 0 0 0 -0.353516,-0.6133 0.5,0.5 0 0 0 -0.148437,-0.018 z m 14.609375,5.9336 c 0.154332,0.054 0.308217,0.1093 0.46875,0.1523 0.165239,0.044 0.330733,0.074 0.496094,0.1055 l -0.136719,0.5117 c -0.07396,0.276 -0.33529,0.4275 -0.611328,0.3535 -0.275819,-0.074 -0.427438,-0.3354 -0.353516,-0.6113 l 0.136719,-0.5117 z" color="#000" font-family="sans-serif" font-weight="400" overflow="visible" white-space="normal"/></g></svg>