<svg xmlns="http://www.w3.org/2000/svg" xmlns:xlink="http://www.w3.org/1999/xlink" width="48" height="48" viewBox="0 0 48 48"><defs><linearGradient id="b" x1="906.952" x2="931.379" y1="515.915" y2="546.094" gradientTransform="matrix(1.53785 0 0 1.53785 -1388.719 211.343)" gradientUnits="userSpaceOnUse" xlink:href="#a"/><linearGradient id="a"><stop offset="0" stop-color="#ffd800"/><stop offset="1" stop-color="#ff6100"/></linearGradient></defs><g transform="translate(0 -1004.362)"><rect width="48" height="48" y="1004.362" fill="url(#b)" rx="10.144" ry="10.144"/><path fill="#fff" fill-rule="evenodd" style="line-height:normal;text-indent:0;text-align:start;text-decoration-line:none;text-decoration-style:solid;text-decoration-color:#000;text-transform:none;block-progression:tb;isolation:auto;mix-blend-mode:normal" d="m 29.399808,1013.8411 c -1.515459,0.027 -2.977096,0.8185 -3.785157,2.2188 l -2.960937,5.1328 a 0.50005,0.50005 0 0 0 -0.117188,0.2011 l -1.886718,3.2696 a 0.50005,0.50005 0 0 0 -0.109375,0.1914 l -1.878907,3.2558 a 0.50005,0.50005 0 0 0 -0.128906,0.2227 l -1.876953,3.2539 a 0.50005,0.50005 0 0 0 -0.115235,0.1992 l -0.441406,0.7656 c -0.27069,0.4691 -0.266809,0.996 -0.175781,1.4825 0.09103,0.4864 0.270994,0.9637 0.439453,1.4218 0.168459,0.4582 0.326575,0.8966 0.394531,1.2598 0.06796,0.3632 0.04358,0.6184 -0.06055,0.7988 l -1.498047,2.5996 c -0.410952,0.7122 -0.163164,1.6376 0.548829,2.0489 0.711992,0.4112 1.637886,0.1633 2.048828,-0.5489 l 1.498047,-2.5996 c 0.104126,-0.1804 0.313872,-0.3265 0.662109,-0.4492 0.348237,-0.1227 0.808275,-0.2058 1.289063,-0.289 0.480788,-0.083 0.982571,-0.1677 1.449218,-0.3321 0.46665,-0.1644 0.924624,-0.4235 1.195313,-0.8926 l 9.517578,-16.4921 c 1.231341,-2.1337 0.480266,-4.8685 -1.667969,-6.1094 -0.537058,-0.3102 -1.110854,-0.4984 -1.689453,-0.5723 -0.216974,-0.028 -0.433896,-0.041 -0.65039,-0.037 z m 0.01367,0.9941 c 0.168019,0 0.337063,0.01 0.50586,0.029 0.450124,0.059 0.898234,0.2074 1.320312,0.4512 1.688309,0.9753 2.261059,3.0802 1.300782,4.7442 l -9.515624,16.4921 c -0.104126,0.1805 -0.313873,0.3285 -0.66211,0.4512 -0.348237,0.1227 -0.808274,0.204 -1.289062,0.2871 -0.480788,0.083 -0.98257,0.1678 -1.449219,0.3321 -0.466649,0.1644 -0.924624,0.4234 -1.195313,0.8925 l -1.5,2.5996 c -0.142785,0.2475 -0.434551,0.3244 -0.68164,0.1817 -0.24709,-0.1428 -0.326368,-0.4342 -0.183594,-0.6817 l 1.5,-2.5996 c 0.27069,-0.4691 0.266809,-0.9959 0.175781,-1.4824 -0.09103,-0.4865 -0.270994,-0.9637 -0.439453,-1.4219 -0.168459,-0.4581 -0.326575,-0.8966 -0.394531,-1.2597 -0.06796,-0.3632 -0.04358,-0.6184 0.06055,-0.7989 l 0.25,-0.4336 0.425781,0.2461 a 0.50005,0.50005 0 1 0 0.5,-0.8652 l -0.425781,-0.2461 0.5,-0.8672 1.291015,0.7461 a 0.50005,0.50005 0 1 0 0.5,-0.8652 l -1.292968,-0.7461 0.5,-0.8652 0.425781,0.2461 a 0.5005087,0.5005087 0 0 0 0.5,-0.8672 l -0.425781,-0.2461 0.5,-0.8653 1.291015,0.7461 a 0.5005087,0.5005087 0 1 0 0.5,-0.8672 l -1.291015,-0.7461 0.5,-0.8652 0.425781,0.2461 a 0.50005,0.50005 0 1 0 0.5,-0.8652 l -0.427734,-0.2461 0.5,-0.8672 1.292968,0.7461 a 0.50005,0.50005 0 1 0 0.5,-0.8652 l -1.292968,-0.7461 0.5,-0.8672 0.425781,0.2461 a 0.50005,0.50005 0 1 0 0.5,-0.8653 l -0.425781,-0.2461 0.5,-0.8652 1.291015,0.7461 a 0.5005087,0.5005087 0 0 0 0.5,-0.8672 l -1.291015,-0.7461 1.769531,-3.0683 c 0.630187,-1.0921 1.755514,-1.7067 2.93164,-1.7247 z m 0.06836,3.0332 a 0.50005,0.50005 0 0 0 -0.441405,0.2559 l -9.962891,17.2656 a 0.50050307,0.50050307 0 1 0 0.867187,0.5 l 9.962891,-17.2656 a 0.50005,0.50005 0 0 0 -0.425781,-0.7559 z" color="#000" font-family="sans-serif" font-weight="400" overflow="visible" white-space="normal"/></g></svg>